{"glyphs":{"0":{"ha":745,"x_min":76,"x_max":677,"o":"m 399 940 q 491 925 449 940 q 570 874 533 909 q 631 782 607 839 q 666 658 656 726 q 677 516 677 591 q 658 315 677 415 q 601 136 640 214 q 500 22 562 58 q 359 -14 439 -14 q 273 -2 314 -14 q 192 42 231 10 q 127 130 153 75 q 88 252 100 184 q 76 391 76 320 q 92 587 76 490 q 121 708 102 654 q 163 804 139 761 q 225 879 187 847 q 307 926 263 911 q 399 940 351 940 m 397 901 q 278 862 334 901 q 188 745 222 822 q 142 576 154 668 q 130 390 130 484 q 140 254 130 316 q 179 138 151 191 q 256 55 208 84 q 361 25 304 25 q 475 60 425 25 q 560 171 526 96 q 608 338 594 247 q 621 523 621 430 q 605 695 621 627 q 561 805 588 762 q 492 875 534 848 q 397 901 451 901 z "},"1":{"ha":745,"x_min":309,"x_max":444,"o":"m 352 0 q 366 260 361 111 l 378 591 q 387 869 386 772 q 309 819 367 857 q 312 871 312 846 q 400 926 340 888 q 422 925 412 925 q 444 926 433 925 l 414 271 l 411 149 q 410 91 410 120 q 412 0 410 55 q 382 1 394 1 q 352 0 370 1 z "},"2":{"ha":745,"x_min":90,"x_max":663,"o":"m 90 0 q 91 35 91 18 l 91 52 q 256 225 185 149 q 412 400 353 330 q 516 530 471 471 q 585 637 560 589 q 609 695 603 672 q 614 741 614 718 q 599 808 614 779 q 549 861 583 838 q 474 893 515 884 q 391 902 433 902 q 136 863 288 902 q 144 915 142 889 q 385 940 264 940 q 493 928 441 940 q 585 891 545 917 q 644 828 624 865 q 663 747 663 792 q 658 695 663 720 q 643 648 653 671 q 595 561 626 608 q 488 422 564 514 q 331 239 413 330 q 140 39 249 149 q 267 37 205 37 l 344 38 l 431 39 l 500 39 q 555 41 530 40 l 587 43 q 629 46 593 43 q 626 0 626 26 q 364 1 527 1 l 187 1 l 90 0 z "},"3":{"ha":745,"x_min":66,"x_max":649,"o":"m 73 21 q 66 77 71 48 q 197 36 139 47 q 307 26 254 26 q 451 53 387 26 q 557 135 516 80 q 599 262 599 190 q 590 321 599 292 q 563 375 581 350 q 519 417 545 399 q 464 443 493 434 q 402 456 434 452 q 323 460 370 460 q 239 456 291 460 q 241 494 241 477 l 241 501 q 300 496 269 496 q 442 521 376 496 q 545 600 509 545 q 582 718 582 654 q 565 797 582 760 q 517 857 549 833 q 441 891 486 881 q 346 901 397 901 q 141 870 249 901 q 147 918 145 892 q 261 936 218 931 q 342 940 304 940 q 501 916 433 940 q 601 840 568 891 q 634 722 634 788 q 627 663 634 692 q 606 605 620 633 q 577 559 591 576 q 544 529 562 543 q 500 506 525 516 q 422 481 476 495 q 498 470 452 481 q 578 429 543 459 q 631 355 614 399 q 649 262 649 311 q 621 143 649 198 q 543 52 593 87 q 430 1 493 17 q 297 -14 366 -14 q 197 -7 248 -14 q 73 21 146 1 z "},"4":{"ha":745,"x_min":76,"x_max":676,"o":"m 450 0 q 457 117 454 59 q 467 355 460 176 l 269 354 l 76 352 q 79 407 79 375 q 376 808 153 505 q 459 926 420 867 q 501 925 483 925 q 543 926 519 925 q 518 394 529 692 l 644 395 q 676 397 659 395 q 675 359 675 380 l 675 352 q 515 355 618 354 q 511 211 514 331 q 509 61 509 92 q 510 0 509 41 q 480 1 492 1 q 450 0 467 1 m 469 394 q 473 477 471 444 l 484 812 l 485 886 l 122 394 l 469 394 z "},"5":{"ha":745,"x_min":104,"x_max":667,"o":"m 111 11 q 104 60 109 39 q 209 34 169 41 q 292 28 249 28 q 416 45 356 28 q 520 99 477 62 q 588 189 564 136 q 612 297 612 241 q 590 391 612 349 q 529 455 568 432 q 443 487 490 479 q 346 495 397 495 q 140 473 256 495 l 177 870 q 184 926 179 889 q 432 925 353 925 l 654 926 q 652 886 652 905 l 652 879 l 609 882 q 564 884 595 884 l 410 888 q 317 889 353 889 l 230 888 l 194 517 q 292 531 256 528 q 362 534 329 534 q 524 509 455 534 q 629 427 592 484 q 667 297 667 369 q 618 139 667 214 q 481 25 570 64 q 290 -14 391 -14 q 229 -10 267 -14 q 169 -3 192 -7 q 111 11 146 1 z "},"6":{"ha":745,"x_min":77,"x_max":665,"o":"m 273 513 q 415 530 361 530 q 546 500 488 530 q 634 411 604 470 q 665 279 665 351 q 623 120 665 192 q 512 18 580 49 q 358 -14 444 -14 q 242 5 298 -14 q 149 63 186 24 q 94 152 111 101 q 77 254 77 203 q 89 363 77 304 q 137 510 100 423 q 233 692 174 597 q 397 926 292 786 q 432 925 414 925 q 467 926 450 925 q 361 791 397 840 q 258 633 306 717 q 175 467 208 546 q 138 357 149 404 q 127 258 127 309 q 153 137 127 185 q 231 58 179 89 q 355 26 283 26 q 490 59 430 26 q 579 150 549 91 q 609 283 609 210 q 586 391 609 342 q 514 466 563 439 q 404 492 466 492 q 342 487 374 492 q 252 466 311 481 q 273 513 267 494 z "},"7":{"ha":745,"x_min":116,"x_max":637,"o":"m 174 0 l 353 376 l 591 886 q 434 888 471 888 q 116 880 246 888 q 119 926 119 901 q 389 925 229 925 l 587 926 l 637 926 q 635 883 635 906 l 635 876 l 283 116 l 235 0 q 204 1 218 1 q 174 0 191 1 z "},"8":{"ha":745,"x_min":63,"x_max":671,"o":"m 265 471 q 210 495 229 484 q 170 527 190 507 q 136 573 150 547 q 117 625 123 599 q 112 677 112 652 q 149 814 112 752 q 252 908 186 876 q 403 940 318 940 q 504 925 455 940 q 588 880 553 910 q 642 806 623 850 q 661 709 661 763 q 655 647 661 677 q 632 589 648 616 q 595 539 616 561 q 553 504 574 517 q 489 474 532 491 q 560 451 537 462 q 604 421 583 440 q 641 378 626 403 q 663 323 656 354 q 671 257 671 292 q 648 143 671 195 q 584 57 625 92 q 482 3 542 21 q 359 -14 422 -14 q 198 18 268 -14 q 96 106 129 50 q 63 232 63 162 q 71 296 63 264 q 96 357 78 328 q 137 407 113 387 q 185 441 160 428 q 265 471 211 454 m 396 902 q 230 840 293 902 q 166 677 166 777 q 193 573 166 615 q 268 509 220 531 q 374 487 317 487 q 493 515 440 487 q 577 593 547 543 q 608 710 608 644 q 576 820 608 775 q 497 883 545 864 q 396 902 450 902 m 376 450 q 233 422 288 450 q 148 346 178 395 q 118 236 118 297 q 146 129 118 178 q 236 52 175 79 q 364 24 297 24 q 495 54 433 24 q 587 139 556 84 q 618 258 618 194 q 559 398 618 347 q 376 450 500 450 z "},"9":{"ha":745,"x_min":85,"x_max":669,"o":"m 295 0 q 486 283 412 157 q 588 500 559 409 q 617 665 617 592 q 602 758 617 712 q 555 837 587 803 q 481 886 524 871 q 389 902 438 902 q 261 871 319 902 q 171 787 203 841 q 140 668 140 734 q 150 589 140 628 q 188 519 161 550 q 262 473 216 489 q 359 457 308 457 q 424 462 388 457 q 524 486 460 467 q 508 436 515 464 q 414 421 446 424 q 357 418 382 418 q 214 446 279 418 q 117 529 149 474 q 85 658 85 585 q 124 805 85 740 q 233 905 163 870 q 389 940 304 940 q 506 920 450 940 q 600 861 562 900 q 653 771 637 823 q 669 669 669 719 q 659 569 669 627 q 614 430 648 512 q 531 262 581 349 q 367 0 481 175 q 331 1 350 1 q 295 0 311 1 z "}," ":{"ha":347,"x_min":0,"x_max":0,"o":""},"!":{"ha":332,"x_min":112,"x_max":212,"o":"m 130 141 l 143 589 l 149 844 q 150 926 150 895 q 180 925 168 925 q 212 926 195 925 l 205 828 l 174 141 q 152 142 162 142 q 130 141 140 142 m 112 0 q 114 44 114 28 q 115 74 115 60 q 153 73 140 73 q 191 74 168 73 q 189 35 190 54 q 187 0 189 16 q 150 1 163 1 q 112 0 136 1 z "},"\"":{"ha":338,"x_min":97,"x_max":277,"o":"m 97 713 q 98 819 98 761 q 97 926 98 866 q 127 925 115 925 q 159 926 142 925 q 140 713 146 812 q 119 714 130 714 q 97 713 108 714 m 216 713 q 218 819 218 761 q 216 926 218 866 q 247 925 233 925 q 277 926 260 925 q 259 713 264 812 q 238 714 248 714 q 216 713 227 714 z "},"#":{"ha":745,"x_min":69,"x_max":685,"o":"m 224 360 l 69 358 q 78 401 74 374 l 231 399 l 254 527 l 98 525 q 107 568 102 538 l 260 566 l 322 926 q 348 925 336 925 q 374 926 361 925 l 309 566 l 395 565 l 483 566 l 545 926 q 570 925 557 925 q 596 926 583 925 l 532 566 l 685 568 q 676 525 680 547 l 525 527 l 503 399 l 656 401 q 647 358 650 382 l 496 360 l 434 0 q 408 1 420 1 q 382 0 395 1 l 447 361 l 376 361 l 273 361 l 212 0 q 186 1 198 1 q 160 0 173 1 l 224 360 m 302 528 l 280 399 l 366 398 l 397 398 l 427 399 l 454 399 l 476 528 l 345 528 l 302 528 z "},"$":{"ha":745,"x_min":123,"x_max":585,"o":"m 123 106 q 200 69 172 81 q 262 50 229 57 q 331 42 296 42 q 432 61 387 42 q 505 122 477 79 q 534 215 534 165 q 520 279 534 252 q 481 333 506 307 q 342 456 456 359 q 257 529 285 504 q 205 588 230 553 q 170 655 180 622 q 159 724 159 689 q 172 796 159 761 q 213 859 184 831 q 274 902 241 888 q 369 926 307 916 q 370 975 370 951 q 370 1034 370 1000 q 397 1032 387 1032 q 425 1034 408 1032 q 417 927 418 971 q 493 918 463 924 q 561 901 522 912 q 567 842 562 869 q 473 872 511 865 q 399 880 435 880 q 261 833 307 880 q 214 724 214 786 q 221 673 214 699 q 251 616 229 647 q 309 553 273 586 q 380 489 345 519 l 427 449 q 495 387 463 418 q 544 332 527 356 q 569 290 561 309 q 581 252 577 272 q 585 211 585 231 q 576 154 585 182 q 551 100 568 125 q 511 55 534 75 q 459 23 487 35 q 378 0 432 12 q 378 -56 378 -26 q 379 -108 378 -66 q 351 -106 361 -106 q 323 -108 340 -106 l 326 -67 q 330 -3 328 -52 q 223 12 265 1 q 127 45 180 22 q 123 106 127 77 z "},"%":{"ha":1048,"x_min":49,"x_max":1006,"o":"m 250 935 q 345 904 306 935 q 404 812 385 872 q 422 669 422 751 q 398 492 422 574 q 331 374 374 410 q 225 339 288 339 q 126 370 166 339 q 68 461 87 401 q 49 593 49 520 q 59 719 49 656 q 94 833 70 782 q 158 910 119 884 q 250 935 198 935 m 248 899 q 166 866 203 899 q 110 763 130 833 q 90 593 90 692 q 107 469 90 517 q 156 398 125 422 q 227 375 188 375 q 294 396 264 375 q 344 463 324 417 q 372 565 364 509 q 380 675 380 621 q 364 800 380 753 q 318 873 348 847 q 248 899 288 899 m 212 0 l 594 604 l 794 926 q 820 925 807 925 q 846 926 834 925 l 482 350 l 265 0 q 239 1 252 1 q 212 0 224 1 m 833 587 q 929 555 890 587 q 987 464 968 524 q 1006 321 1006 404 q 982 144 1006 227 q 915 26 958 62 q 809 -9 871 -9 q 710 22 750 -9 q 652 113 671 54 q 633 244 633 172 q 643 371 633 309 q 678 485 654 434 q 742 562 703 536 q 833 587 782 587 m 832 551 q 750 518 787 551 q 694 415 713 485 q 674 244 674 345 q 691 121 674 168 q 740 51 709 74 q 810 27 772 27 q 878 48 848 27 q 928 115 908 69 q 956 217 948 161 q 964 327 964 273 q 948 452 964 404 q 902 525 932 499 q 832 551 872 551 z "},"&":{"ha":910,"x_min":81,"x_max":884,"o":"m 736 376 q 760 376 750 376 q 784 376 771 376 q 767 252 783 313 q 722 140 751 191 q 806 67 766 101 q 884 0 846 34 q 849 1 867 1 q 814 0 830 1 l 696 104 q 655 66 673 81 q 611 36 638 51 q 550 9 583 20 q 476 -7 517 -1 q 390 -14 435 -14 q 226 17 296 -14 q 118 101 155 47 q 81 221 81 156 q 91 289 81 256 q 125 355 100 323 q 185 416 149 388 q 312 498 220 444 q 264 569 280 543 q 236 624 248 595 q 217 681 223 652 q 211 734 211 709 q 227 811 211 772 q 277 880 243 850 q 355 925 310 911 q 449 940 400 940 q 517 933 484 940 q 593 907 551 926 q 592 883 592 895 q 593 859 592 872 q 451 903 530 903 q 349 882 395 903 q 280 818 303 860 q 256 732 256 777 q 275 644 256 688 q 351 523 294 600 q 501 349 408 446 q 689 170 593 252 q 709 215 703 199 q 721 256 715 231 q 731 310 727 281 q 736 376 734 339 m 662 134 q 335 470 492 284 q 230 401 267 429 q 168 341 192 372 q 135 281 144 309 q 127 224 127 254 q 161 120 127 167 q 256 49 195 74 q 399 24 318 24 q 473 30 437 24 q 538 45 508 35 q 592 70 568 56 q 629 97 615 83 q 662 134 644 111 z "},"'":{"ha":219,"x_min":97,"x_max":159,"o":"m 97 713 q 98 819 98 761 q 97 926 98 866 q 127 925 115 925 q 159 926 142 925 q 140 713 146 812 q 119 714 130 714 q 97 713 108 714 z "},"(":{"ha":413,"x_min":127,"x_max":294,"o":"m 189 -301 l 170 -209 q 153 -120 160 -164 q 139 -22 145 -75 q 131 87 134 32 q 127 199 127 142 q 175 632 127 422 q 252 926 222 841 q 273 925 264 925 q 294 926 283 925 l 266 826 q 239 722 252 778 q 214 600 226 665 q 195 466 203 535 q 183 328 186 397 q 179 191 179 259 q 182 53 179 116 q 192 -69 185 -11 q 205 -164 199 -127 q 233 -301 212 -201 q 211 -300 222 -300 q 189 -301 199 -300 z "},")":{"ha":410,"x_min":78,"x_max":247,"o":"m 146 926 q 166 925 157 925 q 187 926 177 925 q 218 756 209 816 q 234 638 228 697 q 244 524 241 579 q 247 416 247 469 q 210 27 247 214 q 121 -301 173 -159 q 100 -300 111 -300 q 78 -301 88 -300 q 128 -134 113 -193 q 156 -8 143 -76 q 178 136 168 59 q 192 290 187 212 q 197 442 197 368 q 193 572 197 507 q 182 695 189 637 q 169 794 176 754 q 146 926 162 835 z "},"*":{"ha":705,"x_min":127,"x_max":587,"o":"m 185 531 l 326 696 l 127 751 q 148 805 140 779 l 338 729 l 340 940 q 367 939 357 939 q 395 940 378 939 l 374 729 l 573 802 q 587 749 579 771 l 382 694 l 507 533 q 459 499 479 515 l 354 675 l 229 499 q 185 531 212 513 z "},"+":{"ha":745,"x_min":81,"x_max":672,"o":"m 81 454 q 85 499 85 481 q 254 496 151 497 l 355 496 l 358 651 q 361 772 361 741 q 385 771 373 771 q 409 772 397 771 q 396 496 406 720 l 464 496 l 672 499 q 669 454 669 475 q 497 458 602 456 l 395 458 l 390 263 q 389 181 389 210 q 364 182 376 182 q 340 181 352 182 q 353 458 343 224 l 275 458 l 208 457 l 81 454 z "},",":{"ha":271,"x_min":21,"x_max":184,"o":"m 21 -138 q 92 73 67 -12 q 138 73 115 73 q 184 73 161 73 q 144 8 166 43 q 113 -45 123 -26 l 59 -138 q 40 -137 47 -137 q 21 -138 32 -137 z "},"-":{"ha":335,"x_min":-2,"x_max":328,"o":"m -2 332 q 1 380 1 360 q 164 377 75 377 q 328 380 250 377 q 324 332 324 353 q 159 336 250 336 q -2 332 75 336 z "},".":{"ha":271,"x_min":81,"x_max":161,"o":"m 81 0 q 84 44 83 28 q 85 74 84 60 q 123 73 109 73 q 161 74 137 73 q 159 35 159 54 q 157 0 158 16 q 119 1 133 1 q 81 0 105 1 z "},"/":{"ha":559,"x_min":-100,"x_max":526,"o":"m -100 -301 l 98 118 l 434 844 l 469 926 q 498 925 486 925 q 526 926 509 925 l 25 -149 l -43 -301 q -71 -300 -60 -300 q -100 -301 -84 -300 z "},":":{"ha":271,"x_min":81,"x_max":194,"o":"m 115 611 q 117 655 117 639 q 118 685 117 671 q 156 684 142 684 q 194 685 170 684 q 192 646 193 665 q 190 611 191 627 q 153 612 166 612 q 115 611 138 612 m 81 0 q 84 44 83 28 q 85 74 84 60 q 123 73 109 73 q 161 74 137 73 q 159 35 159 54 q 157 0 158 16 q 119 1 133 1 q 81 0 105 1 z "},";":{"ha":271,"x_min":21,"x_max":194,"o":"m 115 611 q 117 655 116 639 q 118 685 117 671 q 156 684 142 684 q 194 685 170 684 q 192 646 192 665 q 190 611 191 627 q 152 612 166 612 q 115 611 138 612 m 21 -138 q 92 73 67 -12 q 138 73 115 73 q 184 73 161 73 q 144 8 166 43 q 113 -45 123 -26 l 59 -138 q 40 -137 47 -137 q 21 -138 32 -137 z "},"<":{"ha":700,"x_min":49,"x_max":650,"o":"m 650 751 l 650 703 l 100 464 l 650 225 l 650 178 l 49 442 l 49 486 l 650 751 z "},"=":{"ha":745,"x_min":81,"x_max":684,"o":"m 97 573 q 391 570 220 570 q 684 573 558 570 q 681 528 681 549 q 387 532 558 532 q 94 528 218 532 q 97 573 97 555 m 85 425 q 378 421 208 421 q 672 425 546 421 q 669 380 669 401 q 375 385 546 385 q 81 380 207 385 q 85 425 85 406 z "},">":{"ha":700,"x_min":50,"x_max":651,"o":"m 50 178 l 50 225 l 600 464 l 50 703 l 50 751 l 651 486 l 651 442 l 50 178 z "},"?":{"ha":618,"x_min":44,"x_max":545,"o":"m 229 142 l 232 230 q 237 309 234 275 q 244 357 240 342 q 255 386 248 372 q 286 429 262 399 q 349 504 309 459 q 421 587 388 548 q 470 656 454 627 q 492 707 487 686 q 497 747 497 727 q 469 831 497 793 q 388 886 441 869 q 270 903 335 903 q 178 896 225 903 q 44 869 132 890 q 54 920 51 899 q 170 935 111 930 q 269 940 229 940 q 415 919 350 940 q 513 851 481 899 q 545 750 545 804 q 539 701 545 727 q 514 638 534 675 q 460 559 495 602 q 384 474 425 517 q 319 401 341 429 q 301 372 308 387 q 289 337 294 357 q 281 275 284 318 l 273 142 q 251 142 262 142 q 229 142 239 142 m 210 0 q 211 44 211 28 q 213 74 212 60 q 251 73 237 73 q 289 74 265 73 q 286 35 287 54 q 285 0 286 16 q 247 1 260 1 q 210 0 233 1 z "},"@":{"ha":1097,"x_min":72,"x_max":1034,"o":"m 778 676 q 759 560 766 610 l 732 357 q 727 314 727 331 q 741 273 727 286 q 776 260 755 260 q 810 266 793 260 q 854 290 828 271 q 905 341 880 309 q 947 413 930 374 q 974 495 964 452 q 983 582 983 538 q 959 713 983 652 q 884 818 936 775 q 762 879 832 861 q 616 898 692 898 q 421 864 512 898 q 263 758 330 831 q 160 586 196 684 q 124 382 124 488 q 149 234 124 303 q 225 117 173 164 q 350 48 277 69 q 504 28 422 28 q 593 34 549 28 q 679 55 637 39 q 768 104 720 71 q 789 72 777 88 q 657 7 729 28 q 497 -14 585 -14 q 319 13 404 -14 q 179 91 235 39 q 97 216 123 144 q 72 376 72 289 q 117 610 72 496 q 237 798 163 724 q 412 906 312 871 q 623 940 513 940 q 784 918 707 940 q 919 848 862 896 q 1005 729 976 800 q 1034 581 1034 659 q 1014 451 1034 515 q 954 334 994 388 q 865 250 915 280 q 767 219 815 219 q 703 241 730 219 q 677 298 677 264 q 677 308 677 301 q 601 242 648 265 q 503 219 553 219 q 413 242 454 219 q 352 304 371 264 q 332 394 332 345 q 370 543 332 471 q 475 655 408 616 q 644 695 543 695 q 682 693 663 695 q 724 687 701 692 l 778 676 m 720 639 q 637 650 676 650 q 508 621 565 650 q 418 528 451 591 q 386 398 386 466 q 400 329 386 361 q 443 280 414 297 q 509 264 471 264 q 584 281 548 264 q 647 335 619 298 q 687 416 675 372 q 720 639 700 461 z "},"A":{"ha":894,"x_min":-22,"x_max":851,"o":"m -22 0 l 205 446 l 405 840 l 446 926 q 483 925 463 925 q 519 926 503 925 l 651 553 l 851 0 q 821 1 833 1 q 790 0 807 1 q 719 215 771 65 q 637 442 667 366 l 254 442 l 40 0 q 9 1 23 1 q -22 0 -5 1 m 275 486 l 622 486 l 477 884 l 275 486 z "},"B":{"ha":770,"x_min":101,"x_max":708,"o":"m 101 0 l 115 223 l 135 805 q 136 870 136 838 l 135 926 l 275 925 l 422 926 q 528 920 492 926 q 593 898 564 913 q 646 856 623 882 q 681 793 669 829 q 692 716 692 756 q 685 652 692 683 q 660 593 677 621 q 620 544 643 566 q 576 511 597 523 q 520 484 555 498 q 575 465 555 473 q 617 442 596 456 q 655 410 638 429 q 683 369 671 392 q 701 318 694 347 q 708 258 708 289 q 683 143 708 195 q 607 56 657 91 q 499 10 556 20 q 372 0 441 0 l 208 1 l 101 0 m 178 501 l 312 501 q 452 507 417 501 q 539 535 498 514 q 591 578 567 550 q 628 643 614 606 q 642 722 642 681 q 628 791 642 761 q 590 843 615 821 q 531 874 564 865 q 426 884 497 884 l 192 884 l 178 501 m 161 43 l 358 43 q 493 54 451 43 q 573 89 535 64 q 634 162 611 114 q 656 262 656 210 q 635 353 656 313 q 577 418 614 393 q 497 451 540 444 q 396 458 454 458 l 176 458 l 161 43 z "},"C":{"ha":848,"x_min":72,"x_max":794,"o":"m 783 72 q 774 16 778 48 q 645 -7 705 -1 q 536 -14 584 -14 q 348 18 437 -14 q 195 112 259 50 q 102 261 132 175 q 72 442 72 347 q 107 647 72 548 q 209 811 142 746 q 370 908 276 877 q 570 940 464 940 q 648 937 606 940 q 716 929 690 933 q 788 916 743 925 q 794 857 789 888 q 666 890 720 882 q 562 898 612 898 q 393 871 474 898 q 251 784 313 844 q 156 635 189 724 q 123 452 123 547 q 151 279 123 361 q 233 141 178 197 q 366 57 289 85 q 533 28 442 28 q 783 72 645 28 z "},"D":{"ha":1002,"x_min":101,"x_max":939,"o":"m 101 0 l 121 322 l 139 850 q 140 926 140 880 l 290 925 l 475 926 q 685 905 606 926 q 826 822 764 885 q 913 678 888 758 q 939 505 939 597 q 900 291 939 394 q 782 119 860 189 q 607 24 705 49 q 393 0 509 0 l 249 1 l 101 0 m 159 43 q 349 41 279 41 q 489 47 417 41 q 618 72 562 54 q 730 136 675 90 q 820 241 785 183 q 871 369 854 298 q 888 511 888 439 q 872 644 888 580 q 837 730 861 690 q 775 807 810 775 q 703 854 741 838 q 608 877 665 870 q 487 884 556 884 l 326 884 l 195 884 l 159 43 z "},"E":{"ha":728,"x_min":101,"x_max":665,"o":"m 101 0 q 124 474 114 184 q 135 926 135 765 q 418 925 286 925 l 665 926 q 663 878 663 899 l 608 882 q 535 884 587 884 q 433 884 483 884 q 189 884 272 884 l 175 495 q 363 493 277 493 q 614 495 465 493 q 610 450 611 475 l 355 452 q 173 450 310 452 l 159 43 l 353 42 q 512 43 468 42 q 633 48 557 44 q 630 0 630 21 q 392 1 467 1 l 101 0 z "},"F":{"ha":691,"x_min":101,"x_max":637,"o":"m 101 0 l 113 236 l 127 690 l 130 825 q 131 926 131 874 q 401 925 273 925 l 637 926 q 635 878 635 899 q 504 883 576 882 q 371 884 431 884 l 184 884 l 172 494 l 316 492 q 590 494 500 492 q 587 447 587 474 l 466 448 q 353 450 395 450 q 169 447 266 450 q 161 0 161 156 q 131 1 144 1 q 101 0 118 1 z "},"G":{"ha":1014,"x_min":72,"x_max":918,"o":"m 617 510 q 800 509 741 509 l 918 510 l 907 296 l 899 34 q 708 -3 793 8 q 563 -14 623 -14 q 365 15 459 -14 q 203 103 270 44 q 104 249 136 161 q 72 434 72 336 q 114 647 72 546 q 229 814 155 747 q 397 910 302 880 q 604 940 493 940 q 731 932 667 940 q 884 905 796 925 q 889 843 885 871 q 724 886 792 875 q 595 898 655 898 q 405 867 496 898 q 252 773 315 836 q 156 619 189 711 q 123 431 123 528 q 152 260 123 339 q 239 132 181 182 q 379 55 296 81 q 561 28 462 28 q 635 32 595 28 q 715 42 675 35 q 780 55 755 48 q 847 74 806 61 l 863 468 l 783 468 q 718 467 750 468 l 615 463 q 617 503 617 484 l 617 510 z "},"H":{"ha":973,"x_min":101,"x_max":878,"o":"m 101 0 q 125 546 117 292 q 134 926 134 800 q 163 925 151 925 q 193 926 176 925 l 174 492 l 805 492 l 818 833 q 819 926 819 861 q 849 925 837 925 q 878 926 861 925 q 843 0 852 505 q 813 1 826 1 q 783 0 800 1 q 804 451 800 236 l 173 451 l 162 118 l 161 0 q 131 1 143 1 q 101 0 118 1 z "},"I":{"ha":289,"x_min":101,"x_max":194,"o":"m 101 0 l 116 272 l 130 680 l 132 821 q 133 926 133 877 q 163 925 151 925 q 194 926 177 925 l 182 680 l 165 175 l 162 0 q 132 1 145 1 q 101 0 118 1 z "},"J":{"ha":522,"x_min":-30,"x_max":431,"o":"m -24 4 q -30 57 -26 31 q 73 33 39 39 q 140 28 107 28 q 216 37 180 28 q 269 60 247 45 q 300 86 288 71 q 329 133 317 105 q 345 195 341 161 q 357 403 351 236 l 365 663 l 370 926 q 401 925 388 925 q 431 926 414 925 q 416 652 422 785 l 404 362 q 390 170 397 211 q 372 105 382 128 q 341 60 360 81 q 294 23 321 39 q 231 -3 264 5 q 139 -14 190 -14 q 72 -10 113 -14 q -24 4 31 -7 z "},"K":{"ha":700,"x_min":104,"x_max":692,"o":"m 104 0 q 126 487 117 211 q 135 883 135 764 l 134 926 q 165 925 152 925 q 195 926 178 925 l 180 629 l 165 111 q 164 0 164 60 q 134 1 147 1 q 104 0 121 1 m 183 492 q 393 712 273 583 q 585 926 513 842 q 621 925 602 925 q 656 926 640 925 l 248 495 l 692 0 q 653 1 669 1 q 614 0 638 1 l 574 51 q 544 86 558 69 q 481 158 529 104 l 183 492 z "},"L":{"ha":626,"x_min":100,"x_max":613,"o":"m 100 0 l 114 215 l 132 701 l 136 926 q 165 925 153 925 q 196 926 179 925 l 172 397 l 159 43 l 298 42 q 503 43 447 42 q 613 48 559 45 q 610 0 610 21 q 368 1 467 1 l 100 0 z "},"M":{"ha":1144,"x_min":82,"x_max":1034,"o":"m 82 0 l 96 125 l 136 623 l 157 926 q 200 925 180 925 q 244 926 220 925 l 274 834 q 328 682 287 797 l 506 184 l 555 52 l 913 844 q 946 926 925 873 q 990 925 969 925 q 1034 926 1011 925 l 1027 533 q 1026 336 1026 400 q 1030 0 1026 123 q 998 1 1013 1 q 966 0 983 1 l 978 597 q 980 787 980 705 l 980 877 l 865 624 l 589 0 q 553 1 573 1 q 517 0 534 1 l 222 818 l 201 872 l 193 793 q 184 659 191 760 l 148 159 q 144 95 146 127 q 142 0 143 63 q 112 1 125 1 q 82 0 99 1 z "},"N":{"ha":1008,"x_min":101,"x_max":913,"o":"m 101 0 l 117 267 l 136 817 l 138 926 q 178 925 154 925 q 220 926 203 925 q 276 837 254 871 q 370 702 298 803 l 718 200 q 825 48 770 123 l 854 821 l 857 926 q 884 925 874 925 q 913 926 895 925 l 900 713 l 878 134 l 876 0 q 834 1 852 1 q 793 0 817 1 l 669 184 l 239 803 l 189 871 q 186 800 187 837 l 161 165 l 158 0 q 130 1 140 1 q 101 0 119 1 z "},"O":{"ha":1080,"x_min":72,"x_max":1017,"o":"m 564 940 q 747 911 661 940 q 898 816 833 882 q 990 665 962 750 q 1017 484 1017 580 q 986 282 1017 379 q 892 119 955 185 q 734 20 829 54 q 536 -14 640 -14 q 345 17 436 -14 q 191 110 253 49 q 101 258 130 172 q 72 439 72 345 q 107 646 72 546 q 209 812 142 746 q 369 909 276 878 q 564 940 462 940 m 562 898 q 385 869 468 898 q 241 775 302 840 q 152 623 180 711 q 123 439 123 535 q 153 267 123 349 q 241 130 183 184 q 376 52 298 75 q 540 28 454 28 q 712 54 631 28 q 852 142 793 81 q 939 291 911 204 q 966 473 966 377 q 941 648 966 565 q 859 788 916 730 q 726 872 803 846 q 562 898 648 898 z "},"P":{"ha":697,"x_min":101,"x_max":671,"o":"m 101 0 q 117 279 111 115 l 130 616 q 136 926 136 791 l 271 925 l 422 926 q 529 918 488 926 q 604 881 570 910 q 654 810 637 852 q 671 722 671 768 q 628 573 671 638 q 512 477 585 509 q 347 445 439 445 q 232 457 295 445 q 218 499 227 477 q 338 487 281 487 q 449 500 396 487 q 540 544 503 513 q 599 622 578 575 q 620 720 620 668 q 607 787 620 755 q 573 841 595 820 q 517 872 551 861 q 405 882 484 882 l 288 882 l 232 883 l 192 884 q 174 422 183 722 q 164 71 164 123 l 165 0 q 133 1 147 1 q 101 0 118 1 z "},"Q":{"ha":1080,"x_min":72,"x_max":1017,"o":"m 1003 82 q 994 22 997 54 q 805 0 873 7 q 671 -11 736 -7 q 565 -14 607 -14 q 361 14 457 -14 q 198 106 265 41 q 101 255 130 170 q 72 437 72 339 q 106 643 72 544 q 207 808 140 741 q 367 907 274 874 q 562 940 460 940 q 756 906 665 940 q 907 803 848 871 q 992 652 967 734 q 1017 475 1017 569 q 1004 344 1017 407 q 967 231 991 281 q 905 137 943 180 q 837 75 876 102 q 771 34 812 56 q 856 43 822 37 q 922 57 890 48 q 1003 82 955 66 m 562 898 q 395 871 473 898 q 254 786 316 845 q 158 636 193 726 q 123 446 123 545 q 146 283 123 359 q 227 146 170 208 q 364 56 283 85 q 535 28 445 28 q 711 57 628 28 q 853 148 794 87 q 940 295 912 210 q 967 477 967 381 q 945 640 967 564 q 871 776 923 715 q 737 868 820 838 q 562 898 654 898 z "},"R":{"ha":704,"x_min":101,"x_max":660,"o":"m 101 0 l 112 164 l 132 675 l 134 820 l 135 926 l 270 925 l 425 926 q 565 900 521 926 q 634 828 609 875 q 660 720 660 781 q 622 580 660 644 q 517 484 583 517 q 364 450 450 450 q 332 452 353 450 l 656 0 q 621 1 640 1 q 586 0 602 1 l 497 134 l 239 500 q 343 489 299 489 q 447 504 397 489 q 533 547 497 518 q 589 620 569 576 q 608 715 608 664 q 599 780 608 750 q 568 832 589 810 q 525 865 547 855 q 469 879 503 874 q 395 883 434 883 l 284 882 q 191 884 248 882 q 165 0 168 347 q 133 1 148 1 q 101 0 118 1 z "},"S":{"ha":614,"x_min":47,"x_max":545,"o":"m 52 28 q 47 90 52 55 q 281 28 176 28 q 391 47 342 28 q 466 106 439 67 q 493 195 493 145 q 486 243 493 220 q 463 289 479 265 q 406 350 446 313 q 272 465 366 387 l 218 509 q 165 560 191 534 q 122 609 139 587 q 97 650 105 632 q 83 690 88 668 q 79 734 79 711 q 109 837 79 789 q 197 912 138 884 q 347 940 256 940 q 508 922 410 940 q 514 865 509 896 q 410 891 452 884 q 332 898 369 898 q 221 876 264 898 q 154 817 178 854 q 130 739 130 780 q 136 697 130 718 q 156 655 142 676 q 193 608 170 633 q 253 550 216 583 q 352 467 290 517 q 437 394 413 416 q 483 349 461 373 q 518 300 505 324 q 538 250 532 276 q 545 196 545 224 q 512 84 545 132 q 417 11 480 36 q 277 -14 355 -14 q 179 -6 227 -14 q 52 28 132 2 z "},"T":{"ha":654,"x_min":28,"x_max":664,"o":"m 283 0 l 293 169 l 319 884 q 28 878 152 884 q 31 926 31 905 q 368 925 195 925 l 562 926 l 664 926 q 661 878 661 899 q 411 884 578 884 l 372 884 l 345 137 q 344 106 344 121 l 344 0 q 313 1 327 1 q 283 0 300 1 z "},"U":{"ha":977,"x_min":110,"x_max":886,"o":"m 132 926 q 162 925 149 925 q 193 926 176 925 l 162 370 l 161 319 l 161 308 q 182 175 161 227 q 249 89 203 123 q 351 41 296 54 q 471 28 406 28 q 591 41 534 28 q 671 70 635 50 q 724 109 701 85 q 765 163 748 133 q 789 227 781 193 q 806 386 802 292 l 820 665 q 827 926 827 822 q 857 925 844 925 q 886 926 869 925 l 869 617 l 857 345 q 837 197 852 256 q 809 130 827 161 q 767 78 791 100 q 700 33 739 52 q 608 0 657 11 q 473 -14 543 -14 q 336 1 397 -14 q 236 42 281 14 q 162 106 191 70 q 124 182 138 135 q 110 295 110 229 q 114 435 110 355 l 130 798 q 132 926 132 861 z "},"V":{"ha":882,"x_min":44,"x_max":921,"o":"m 372 0 l 348 77 q 334 122 341 100 q 295 232 323 154 l 44 926 q 75 925 62 925 q 105 926 88 925 l 144 800 l 414 41 l 782 766 l 817 840 q 857 926 833 871 q 889 925 874 925 q 921 926 904 925 q 762 623 860 816 l 584 276 q 448 0 505 122 q 410 1 425 1 q 372 0 395 1 z "},"W":{"ha":1368,"x_min":54,"x_max":1393,"o":"m 372 0 l 146 667 l 88 834 q 54 926 77 865 q 87 925 71 925 q 121 926 104 925 l 156 804 l 408 53 l 441 117 l 682 597 q 618 784 645 709 l 568 926 q 596 925 586 925 q 625 926 608 925 q 711 654 663 789 l 829 926 q 861 925 846 925 q 892 926 876 925 l 806 751 q 733 595 771 679 l 743 560 l 897 111 l 920 49 l 961 131 q 1007 229 973 156 l 1297 847 q 1331 926 1310 877 q 1362 925 1348 925 q 1393 926 1375 925 q 1242 617 1355 853 l 1068 253 q 951 0 1006 125 q 916 1 935 1 q 881 0 898 1 l 806 229 l 703 534 l 685 500 q 652 435 677 487 l 436 0 q 404 1 419 1 q 372 0 388 1 z "},"X":{"ha":781,"x_min":-16,"x_max":778,"o":"m -16 0 q 361 476 66 97 l 53 926 q 88 925 70 925 q 123 926 106 925 l 201 801 l 395 516 l 657 851 q 677 879 667 864 q 709 926 688 893 q 744 925 726 925 q 778 926 762 925 l 469 538 l 422 477 q 551 285 476 395 l 745 0 q 711 1 728 1 q 676 0 693 1 q 576 158 631 75 q 387 435 522 240 l 250 262 l 100 64 q 54 0 83 41 q 19 1 37 1 q -16 0 1 1 z "},"Y":{"ha":669,"x_min":12,"x_max":695,"o":"m 277 0 l 297 294 l 304 420 l 213 581 l 12 926 q 43 925 30 925 q 73 926 56 925 l 102 871 q 159 772 111 854 l 334 467 l 496 709 l 595 865 q 633 926 608 885 q 664 925 650 925 q 695 926 677 925 l 353 417 q 351 354 353 384 l 342 180 q 338 94 340 141 l 337 0 q 307 1 319 1 q 277 0 294 1 z "},"Z":{"ha":743,"x_min":37,"x_max":699,"o":"m 37 0 q 39 62 39 34 l 648 884 l 606 885 l 382 884 q 224 883 283 884 q 94 877 165 881 q 96 918 96 897 l 96 926 q 413 925 212 925 l 600 926 l 699 926 q 696 864 696 896 l 138 110 q 89 41 122 89 q 393 41 220 41 q 541 42 490 41 q 659 47 591 43 q 656 7 656 27 l 656 0 q 364 1 536 1 q 37 0 127 1 z "},"[":{"ha":413,"x_min":138,"x_max":375,"o":"m 180 926 q 277 925 227 925 q 375 926 329 925 q 372 889 372 907 q 303 890 341 890 q 233 889 266 890 l 210 311 l 192 -264 q 262 -264 226 -264 q 332 -264 298 -264 q 330 -301 330 -282 q 234 -300 288 -300 q 138 -301 180 -300 l 162 317 l 180 926 z "},"\\":{"ha":559,"x_min":38,"x_max":637,"o":"m 637 -301 q 608 -300 621 -300 q 578 -301 595 -300 l 511 -143 l 38 926 q 67 925 56 925 q 97 926 79 925 l 141 819 l 481 46 l 637 -301 z "},"]":{"ha":413,"x_min":21,"x_max":258,"o":"m 215 -301 q 118 -300 169 -300 q 21 -301 67 -300 q 24 -264 24 -283 q 93 -264 55 -264 q 163 -264 130 -264 l 197 633 l 204 889 q 134 890 170 890 q 63 889 97 890 q 66 926 66 907 q 162 924 108 924 q 258 926 216 924 l 234 309 l 215 -301 z "},"^":{"ha":700,"x_min":58,"x_max":642,"o":"m 113 536 l 58 536 l 319 926 l 381 926 l 642 536 l 586 536 l 349 890 l 113 536 z "},"_":{"ha":700,"x_min":3,"x_max":697,"o":"m 3 -109 l 697 -109 l 697 -155 l 3 -155 l 3 -109 z "},"`":{"ha":694,"x_min":254,"x_max":393,"o":"m 393 771 q 380 772 388 772 q 366 771 371 772 q 327 839 343 811 l 254 960 q 294 960 271 960 q 333 960 316 960 l 393 771 z "},"a":{"ha":692,"x_min":31,"x_max":605,"o":"m 123 613 q 131 666 128 636 q 251 692 200 685 q 354 699 302 699 q 466 689 414 699 q 551 653 518 678 q 594 597 584 629 q 605 532 605 565 q 603 446 605 498 q 596 334 600 394 q 589 185 592 275 q 585 57 585 96 l 585 0 q 557 1 568 1 q 528 0 545 1 q 542 168 538 104 q 548 307 545 233 q 554 446 550 381 q 522 419 533 428 q 497 404 511 411 q 466 390 484 397 q 431 378 447 383 q 356 357 416 373 q 270 332 296 340 q 180 296 212 313 q 122 256 145 278 q 92 214 102 236 q 81 159 81 189 q 108 83 81 115 q 175 37 134 50 q 272 24 215 24 q 327 27 300 24 q 377 35 353 30 q 444 54 400 40 q 434 3 438 28 q 345 -11 379 -8 q 280 -14 311 -14 q 175 -5 223 -14 q 94 29 127 3 q 46 89 62 55 q 31 160 31 123 q 40 215 31 189 q 69 267 50 242 q 113 304 85 287 q 183 341 144 326 q 279 374 228 359 q 391 403 294 378 q 475 432 435 414 q 536 480 514 449 q 557 543 557 511 q 547 587 557 566 q 511 627 537 608 q 446 654 485 646 q 365 661 408 661 q 272 655 315 661 q 199 640 229 648 q 123 613 169 631 z "},"b":{"ha":785,"x_min":90,"x_max":722,"o":"m 90 0 l 95 67 l 115 626 l 122 926 q 151 925 140 925 q 180 926 162 925 q 170 774 172 849 l 165 668 q 290 693 239 687 q 390 699 340 699 q 540 678 476 699 q 646 607 604 656 q 705 496 688 557 q 722 368 722 435 q 702 221 722 292 q 638 94 682 151 q 535 12 595 37 q 400 -14 474 -14 q 318 -3 357 -14 q 250 24 279 7 q 201 63 220 42 q 170 106 181 85 q 146 164 158 127 l 144 0 q 117 1 127 1 q 90 0 107 1 m 163 620 q 155 441 158 482 q 153 344 153 399 q 163 215 153 271 q 205 115 174 159 q 287 47 237 71 q 397 24 336 24 q 511 47 458 24 q 599 121 564 71 q 653 238 634 171 q 671 373 671 306 q 635 535 671 468 q 538 632 599 603 q 395 661 477 661 q 291 652 345 661 q 163 620 237 644 z "},"c":{"ha":635,"x_min":63,"x_max":582,"o":"m 557 54 q 548 3 551 26 q 387 -14 462 -14 q 255 5 317 -14 q 150 69 194 25 q 84 179 106 113 q 63 317 63 245 q 97 506 63 416 q 204 647 130 595 q 403 699 277 699 q 577 674 494 699 q 582 627 578 652 q 471 655 511 648 q 398 661 431 661 q 272 634 327 661 q 181 556 217 606 q 129 444 144 506 q 114 319 114 382 q 131 194 114 252 q 185 99 148 136 q 277 43 222 62 q 391 24 331 24 q 461 30 424 24 q 557 54 498 37 z "},"d":{"ha":784,"x_min":63,"x_max":698,"o":"m 671 0 q 645 1 654 1 q 618 0 635 1 l 628 172 q 598 110 612 133 q 563 65 584 87 q 511 25 541 43 q 440 -3 480 7 q 357 -14 400 -14 q 234 9 292 -14 q 137 77 177 33 q 80 178 98 121 q 63 299 63 235 q 95 465 63 385 q 188 600 127 545 q 325 677 248 654 q 488 699 402 699 q 640 684 557 699 q 644 808 644 749 q 642 926 644 860 q 670 925 659 925 q 698 926 681 925 q 686 660 690 799 l 677 332 q 671 83 671 143 l 671 0 m 638 637 q 555 657 590 652 q 488 661 519 661 q 342 640 412 661 q 222 569 273 618 q 142 446 170 520 q 114 298 114 371 q 145 153 114 218 q 232 55 176 87 q 359 24 289 24 q 434 34 400 24 q 496 61 469 43 q 548 108 524 79 q 592 178 573 138 q 619 265 610 218 q 631 411 628 313 l 638 637 z "},"e":{"ha":700,"x_min":63,"x_max":656,"o":"m 598 66 q 590 15 593 41 q 489 -8 534 -1 q 397 -14 444 -14 q 253 8 316 -14 q 146 81 191 30 q 82 196 101 132 q 63 332 63 260 q 96 508 63 426 q 203 645 128 591 q 388 699 277 699 q 526 671 464 699 q 622 579 587 643 q 656 428 656 515 q 654 397 656 412 l 118 396 q 115 330 115 352 q 134 205 115 265 q 191 104 153 144 q 283 43 229 63 q 396 24 336 24 q 598 66 487 24 m 124 433 l 606 433 q 601 505 606 479 q 583 556 596 530 q 552 602 570 583 q 510 634 534 621 q 456 654 486 648 q 394 661 427 661 q 323 653 358 661 q 260 631 289 645 q 207 594 232 616 q 166 547 182 572 q 142 497 151 521 q 124 433 134 474 z "},"f":{"ha":348,"x_min":35,"x_max":424,"o":"m 97 0 l 109 240 l 121 647 l 35 647 q 39 685 38 665 l 123 685 q 128 800 126 783 q 140 857 132 836 q 161 892 149 878 q 196 920 174 907 q 245 939 217 932 q 311 946 274 946 q 356 943 333 946 q 418 932 378 941 q 424 886 419 912 q 308 908 360 908 q 255 900 279 908 q 218 882 232 892 q 194 854 203 871 q 179 817 184 837 q 172 756 174 796 q 170 685 172 748 l 372 685 q 369 647 370 667 l 169 647 l 153 0 q 125 1 136 1 q 97 0 115 1 z "},"g":{"ha":804,"x_min":63,"x_max":722,"o":"m 121 -248 q 269 -282 211 -273 q 376 -291 328 -291 q 484 -276 434 -291 q 561 -240 529 -263 q 605 -193 589 -219 q 632 -117 623 -163 q 644 -20 642 -72 q 650 170 648 64 q 627 119 637 138 q 600 80 617 100 q 558 42 582 59 q 505 13 535 26 q 438 -8 475 -1 q 362 -16 401 -16 q 245 1 299 -16 q 149 56 191 17 q 85 155 106 94 q 63 283 63 216 q 96 458 63 374 q 188 597 128 543 q 327 675 248 652 q 497 699 406 699 q 722 675 590 699 l 715 597 q 711 539 713 575 l 696 229 l 688 -56 q 675 -146 686 -106 q 640 -221 663 -188 q 580 -277 616 -254 q 489 -314 544 -300 q 355 -329 429 -329 q 248 -323 300 -329 q 126 -301 195 -317 q 121 -248 125 -273 m 668 644 q 565 659 604 656 q 496 661 526 661 q 352 644 418 661 q 230 577 286 626 q 144 452 175 528 q 114 293 114 375 q 142 151 114 214 q 230 55 170 87 q 361 22 289 22 q 452 33 410 22 q 513 59 484 41 q 568 107 542 77 q 615 177 595 137 q 644 260 635 218 q 660 411 655 319 l 668 644 z "},"h":{"ha":800,"x_min":91,"x_max":710,"o":"m 91 0 l 111 442 q 119 774 113 507 l 123 926 q 149 925 139 925 q 176 926 161 925 l 157 530 q 184 580 173 562 q 214 617 195 598 q 255 651 233 637 q 303 675 276 665 q 366 692 330 686 q 442 699 402 699 q 554 687 501 699 q 644 645 607 674 q 696 574 682 615 q 710 491 710 532 q 709 453 710 477 q 704 352 708 416 l 693 76 q 690 0 692 50 q 663 1 673 1 q 635 0 653 1 q 648 176 644 87 l 657 342 q 662 474 662 418 q 638 579 662 538 q 557 641 614 620 q 437 661 500 661 q 355 652 395 661 q 288 628 317 643 q 245 597 264 616 q 207 551 224 578 q 176 484 189 521 q 159 391 165 449 q 149 213 154 345 l 144 0 q 117 1 126 1 q 91 0 109 1 z "},"i":{"ha":259,"x_min":91,"x_max":186,"o":"m 115 859 l 117 926 q 152 925 134 925 q 186 926 170 925 l 184 859 q 150 860 168 860 q 115 859 132 860 m 91 0 q 108 355 98 102 q 118 685 118 608 q 145 684 136 684 q 173 685 155 684 q 154 334 163 556 q 145 0 145 111 q 118 1 127 1 q 91 0 109 1 z "},"j":{"ha":260,"x_min":-252,"x_max":183,"o":"m 113 859 l 114 926 q 149 925 131 925 q 183 926 167 925 l 181 859 q 147 860 164 860 q 113 859 129 860 m 168 685 l 154 387 l 142 85 q 129 -140 135 -96 q 109 -221 122 -191 q 84 -262 100 -243 q 43 -296 67 -281 q -9 -319 18 -312 q -95 -328 -45 -328 q -247 -308 -161 -328 q -252 -256 -248 -287 q -85 -290 -162 -290 q -28 -283 -54 -290 q 16 -263 -3 -275 q 46 -236 35 -250 q 66 -195 57 -221 q 85 -107 79 -159 q 98 121 90 -55 q 108 380 101 180 q 115 627 115 604 l 115 685 q 142 684 133 684 q 168 685 151 684 z "},"k":{"ha":578,"x_min":88,"x_max":571,"o":"m 88 0 q 103 309 97 139 l 114 654 q 119 926 119 829 q 147 925 137 925 q 175 926 157 925 l 167 790 l 144 148 l 142 0 q 115 1 123 1 q 88 0 106 1 m 157 380 l 342 557 l 399 614 q 426 643 413 629 q 465 685 439 657 q 500 684 482 684 q 535 685 519 684 l 296 458 q 216 380 263 428 l 461 115 l 571 0 q 537 1 554 1 q 503 0 519 1 l 359 161 l 157 380 z "},"l":{"ha":260,"x_min":86,"x_max":178,"o":"m 86 0 q 123 926 117 566 q 151 925 140 925 q 178 926 161 925 l 161 595 l 142 0 q 114 1 124 1 q 86 0 104 1 z "},"m":{"ha":1147,"x_min":81,"x_max":1059,"o":"m 81 0 l 89 92 q 92 148 91 120 l 110 600 q 111 685 111 650 q 137 684 124 684 q 163 685 150 684 l 156 543 q 196 608 178 584 q 245 653 214 631 q 316 687 276 675 q 398 699 355 699 q 468 690 435 699 q 525 666 501 680 q 564 634 548 652 q 588 597 579 616 q 604 545 596 578 q 630 591 618 572 q 663 631 642 610 q 712 666 684 651 q 775 690 741 682 q 847 699 810 699 q 954 680 903 699 q 1031 618 1004 661 q 1059 515 1059 575 q 1054 415 1059 482 q 1043 223 1049 347 q 1037 0 1038 98 q 1010 1 1019 1 q 983 0 1000 1 q 995 199 989 83 l 1005 386 q 1009 501 1009 456 q 1007 542 1009 525 q 998 576 1005 559 q 977 608 991 593 q 944 634 964 623 q 898 651 925 645 q 840 658 871 658 q 759 644 796 658 q 692 606 722 631 q 643 547 662 581 q 611 453 623 513 q 596 271 600 402 l 589 0 q 562 1 571 1 q 534 0 552 1 q 545 182 541 93 l 553 353 q 557 488 557 434 q 547 565 557 538 q 516 612 538 591 q 463 645 495 633 q 392 657 431 657 q 312 643 350 657 q 243 604 273 629 q 193 542 214 578 q 159 444 172 505 q 142 255 149 391 q 136 0 136 105 q 109 1 118 1 q 81 0 99 1 z "},"n":{"ha":791,"x_min":81,"x_max":701,"o":"m 81 0 l 104 414 l 111 609 q 112 685 112 661 q 138 684 130 684 q 164 685 146 684 l 155 530 q 180 579 170 562 q 207 614 190 595 q 247 650 224 633 q 303 678 271 667 q 371 694 336 689 q 439 699 406 699 q 550 686 496 699 q 639 642 604 673 q 687 569 674 610 q 701 481 701 528 q 699 419 701 460 l 684 111 l 682 0 q 655 1 668 1 q 629 0 642 1 q 640 162 636 85 l 650 336 q 655 475 655 432 q 642 555 655 519 q 598 613 629 590 q 523 647 566 637 q 433 658 479 658 q 319 640 369 658 q 237 590 273 623 q 180 507 202 557 q 154 405 163 471 q 141 219 146 348 q 136 0 136 90 q 109 1 118 1 q 81 0 99 1 z "},"o":{"ha":781,"x_min":63,"x_max":718,"o":"m 399 699 q 522 682 463 699 q 626 622 581 664 q 694 511 671 579 q 718 366 718 442 q 693 207 718 283 q 622 80 668 131 q 514 7 576 28 q 382 -14 452 -14 q 286 -2 333 -14 q 198 35 239 9 q 126 104 157 62 q 79 203 95 146 q 63 323 63 261 q 104 523 63 433 q 225 656 144 614 q 399 699 307 699 m 398 661 q 248 622 317 661 q 146 502 179 583 q 114 325 114 421 q 133 197 114 257 q 193 97 151 138 q 282 40 234 56 q 382 24 330 24 q 496 43 443 24 q 589 109 549 63 q 648 222 629 155 q 667 365 667 290 q 649 496 667 435 q 591 594 630 557 q 501 646 551 631 q 398 661 451 661 z "},"p":{"ha":777,"x_min":72,"x_max":713,"o":"m 72 -301 l 80 -164 l 102 450 l 106 656 q 261 690 195 680 q 389 699 327 699 q 561 666 488 699 q 673 551 633 632 q 713 366 713 469 q 670 164 713 256 q 556 30 628 73 q 395 -14 484 -14 q 316 -5 355 -14 q 245 22 277 4 q 190 66 213 40 q 138 148 168 92 l 127 -212 l 127 -235 q 127 -301 127 -258 q 100 -300 110 -300 q 72 -301 90 -300 m 159 614 q 149 450 153 557 q 144 308 144 342 q 157 198 144 249 q 205 106 169 148 q 292 43 242 64 q 395 22 342 22 q 533 64 472 22 q 628 186 594 105 q 661 363 661 267 q 627 528 661 458 q 533 630 592 598 q 398 661 473 661 q 159 614 285 661 z "},"q":{"ha":770,"x_min":63,"x_max":689,"o":"m 602 -301 l 610 -142 l 614 -74 l 614 -47 l 621 168 q 575 90 596 117 q 519 38 554 62 q 440 0 484 14 q 349 -14 396 -14 q 232 9 288 -14 q 138 74 176 33 q 81 173 100 115 q 63 294 63 231 q 97 468 63 385 q 193 606 130 551 q 332 680 256 661 q 499 699 408 699 q 538 698 519 699 q 577 695 558 697 q 629 688 595 693 l 689 678 l 682 591 q 679 531 680 561 l 665 102 l 657 -301 q 630 -300 640 -300 q 602 -301 620 -300 m 632 641 q 544 658 576 654 q 486 661 512 661 q 288 617 374 661 q 158 484 201 572 q 114 290 114 396 q 140 157 114 217 q 222 60 165 97 q 350 24 279 24 q 424 34 389 24 q 489 64 459 45 q 545 115 519 84 q 590 187 570 145 q 617 273 610 229 q 628 441 625 317 q 632 641 632 566 z "},"r":{"ha":437,"x_min":81,"x_max":429,"o":"m 81 0 q 97 336 90 143 q 104 624 104 530 l 104 685 q 129 684 117 684 q 154 685 141 684 l 148 557 q 191 627 171 603 q 236 666 210 650 q 297 691 262 682 q 370 699 332 699 q 427 692 398 699 q 429 646 427 669 q 351 658 384 658 q 292 649 318 658 q 243 623 266 640 q 199 577 220 606 q 166 514 177 547 q 148 420 153 475 q 138 222 140 333 q 136 0 136 72 q 109 1 118 1 q 81 0 99 1 z "},"s":{"ha":499,"x_min":35,"x_max":435,"o":"m 41 13 q 35 71 39 45 q 136 37 89 47 q 223 28 184 28 q 312 43 275 28 q 368 87 349 58 q 387 148 387 116 q 384 175 387 162 q 374 202 381 189 q 359 226 368 215 q 335 252 351 237 q 300 283 320 266 q 236 337 279 301 q 164 399 193 373 q 118 452 136 425 q 91 501 99 479 q 83 547 83 524 q 108 623 83 586 q 179 680 133 660 q 297 699 226 699 q 431 684 357 699 q 435 626 432 654 q 358 651 392 644 q 288 657 323 657 q 207 644 244 657 q 151 605 170 631 q 132 550 132 580 q 136 519 132 534 q 149 491 140 505 q 172 461 158 476 q 208 426 186 446 q 272 371 230 406 q 334 318 313 336 q 369 285 354 300 q 396 252 383 270 q 418 217 410 234 q 430 183 426 200 q 434 148 434 165 q 409 67 434 105 q 336 7 384 29 q 221 -14 288 -14 q 158 -10 196 -14 q 98 -2 121 -6 q 41 13 75 3 z "},"t":{"ha":382,"x_min":45,"x_max":380,"o":"m 361 43 q 353 0 356 22 q 252 -14 298 -14 q 183 -5 214 -14 q 134 25 153 3 q 109 74 115 47 q 103 132 103 101 q 103 149 103 137 q 106 199 104 160 l 128 648 l 45 648 q 48 685 47 667 l 131 685 q 136 812 134 728 q 181 821 162 816 q 176 685 176 711 l 380 685 q 376 648 377 667 l 174 648 l 152 183 l 151 155 q 164 73 151 98 q 202 35 178 47 q 252 24 226 24 q 291 27 270 24 q 361 43 311 30 z "},"u":{"ha":790,"x_min":91,"x_max":709,"o":"m 680 0 q 654 1 666 1 q 629 0 643 1 l 635 147 q 609 97 619 113 q 584 65 600 82 q 545 33 568 48 q 490 7 522 18 q 424 -9 458 -4 q 357 -14 391 -14 q 248 -1 298 -14 q 158 44 197 12 q 105 118 119 76 q 91 214 91 161 q 100 419 91 256 q 109 685 109 582 q 136 684 127 684 q 162 685 144 684 q 146 443 157 627 q 136 213 136 259 q 149 125 136 161 q 196 66 163 90 q 272 33 230 43 q 359 24 315 24 q 449 36 406 24 q 521 65 492 47 q 571 109 549 83 q 614 178 596 138 q 637 263 629 212 q 650 449 644 315 q 655 685 654 578 q 682 684 673 684 q 709 685 691 684 l 684 210 l 681 108 q 680 0 680 45 z "},"v":{"ha":625,"x_min":12,"x_max":640,"o":"m 265 0 q 176 246 227 111 l 12 685 q 43 684 30 684 q 73 685 56 684 l 91 627 q 102 595 96 611 l 301 39 l 557 627 l 579 685 q 610 684 597 684 q 640 685 623 684 l 367 87 l 330 0 q 298 1 313 1 q 265 0 282 1 z "},"w":{"ha":1115,"x_min":12,"x_max":1131,"o":"m 260 0 l 229 94 l 12 685 q 40 684 30 684 q 68 685 50 684 l 95 602 l 201 303 l 275 104 q 302 35 284 80 l 368 201 l 548 685 q 579 684 565 684 q 611 685 594 684 l 791 35 q 1076 685 962 406 q 1103 684 1094 684 q 1131 685 1113 684 l 867 102 l 823 0 q 786 1 800 1 q 748 0 772 1 l 716 127 l 596 565 q 574 636 590 585 l 551 582 l 355 52 q 338 0 351 41 q 299 1 314 1 q 260 0 283 1 z "},"x":{"ha":577,"x_min":-20,"x_max":551,"o":"m -20 0 l 117 185 l 254 373 l 57 685 q 86 684 75 684 q 116 685 99 684 q 286 414 178 576 q 479 685 415 586 q 510 684 497 684 q 541 685 524 684 l 309 374 l 551 0 q 519 1 534 1 q 488 0 505 1 q 448 71 463 45 q 370 196 422 114 q 279 334 317 278 q 42 0 158 174 q 11 1 24 1 q -20 0 -3 1 z "},"y":{"ha":618,"x_min":-58,"x_max":639,"o":"m -54 -315 q -58 -262 -54 -293 q -23 -276 -37 -272 q 10 -284 -9 -281 q 45 -287 29 -287 q 118 -267 84 -287 q 186 -187 152 -248 q 267 -21 221 -127 l 118 395 l 11 685 q 43 684 31 684 q 75 685 56 684 l 87 637 q 104 581 95 609 q 140 475 117 541 l 294 35 l 509 513 q 549 608 538 578 q 577 685 561 637 q 608 684 597 684 q 639 685 619 684 q 515 416 605 609 l 382 130 l 256 -149 q 204 -244 226 -214 q 168 -285 186 -268 q 136 -306 153 -297 q 90 -322 115 -317 q 36 -329 64 -329 q -54 -315 -7 -329 z "},"z":{"ha":568,"x_min":26,"x_max":524,"o":"m 26 0 q 28 59 28 31 l 111 165 l 434 588 q 475 644 448 606 q 332 646 397 646 q 76 640 199 646 q 78 685 78 664 q 307 684 192 684 l 524 685 q 522 633 522 665 l 522 626 l 75 41 q 212 39 138 39 q 495 47 389 39 q 492 0 492 20 q 274 1 382 1 l 75 1 l 26 0 z "},"{":{"ha":532,"x_min":176,"x_max":456,"o":"m 231 311 q 255 297 246 303 q 273 278 264 290 q 289 252 282 267 q 298 217 295 238 q 301 168 301 197 q 295 19 301 111 q 288 -111 288 -73 q 291 -173 288 -153 q 301 -208 294 -193 q 318 -234 307 -224 q 343 -251 328 -244 q 376 -260 359 -258 q 414 -264 393 -263 q 412 -301 412 -284 q 342 -294 369 -301 q 285 -266 305 -284 q 253 -216 264 -248 q 241 -117 241 -184 q 248 32 241 -79 q 255 180 255 143 q 251 222 255 203 q 239 253 246 241 q 220 273 232 264 q 199 287 208 283 q 176 295 189 292 q 179 328 178 311 q 216 347 200 335 q 245 374 235 359 q 260 410 254 388 q 266 469 264 429 q 268 565 267 484 l 270 690 q 274 780 271 759 q 286 832 277 809 q 302 864 292 850 q 323 888 311 878 q 353 907 337 900 q 395 921 372 917 q 456 926 416 926 q 453 889 454 907 q 396 880 417 887 q 362 864 374 873 q 342 842 350 854 q 325 800 331 823 q 317 726 319 777 q 315 607 315 674 q 314 536 315 589 q 311 448 313 483 q 302 393 308 414 q 288 357 296 372 q 267 333 279 343 q 231 311 255 323 z "},"|":{"ha":700,"x_min":327,"x_max":373,"o":"m 327 926 l 373 926 l 373 -231 l 327 -231 l 327 926 z "},"}":{"ha":532,"x_min":57,"x_max":336,"o":"m 281 311 q 251 329 262 321 q 229 355 239 338 q 215 398 219 372 q 211 454 211 424 q 212 491 211 467 q 214 545 213 516 l 219 629 q 223 713 222 684 q 224 760 224 741 q 218 819 224 798 q 197 856 212 840 q 159 879 182 871 q 101 888 137 886 q 98 926 101 906 q 147 924 128 926 q 188 913 166 922 q 225 891 210 905 q 251 861 241 878 q 267 818 261 843 q 272 760 272 792 q 269 690 272 742 l 262 555 q 257 448 257 473 q 263 395 257 419 q 289 354 269 372 q 336 328 310 336 q 333 294 333 309 q 302 281 315 290 q 275 260 285 271 q 260 236 266 250 q 250 192 253 218 q 245 100 247 172 l 244 -25 q 241 -123 243 -90 q 227 -204 236 -176 q 202 -251 218 -231 q 164 -281 186 -270 q 111 -297 142 -292 q 57 -301 95 -300 q 60 -264 60 -283 q 120 -254 96 -263 q 160 -229 145 -245 q 182 -194 176 -213 q 193 -126 189 -176 q 197 18 197 -77 q 199 119 197 64 q 204 198 201 174 q 215 240 208 223 q 231 271 221 258 q 251 293 240 284 q 281 311 261 301 z "},"~":{"ha":932,"x_min":135,"x_max":797,"o":"m 168 380 l 135 401 q 223 511 180 484 q 312 538 267 538 q 379 525 342 538 q 479 478 416 511 q 569 436 542 445 q 621 428 595 428 q 695 453 662 428 q 764 540 728 477 l 797 520 q 744 443 773 475 q 682 398 715 412 q 617 384 648 384 q 568 392 594 384 q 526 406 541 399 q 425 456 510 412 q 356 487 382 479 q 310 494 331 494 q 236 467 270 494 q 168 380 201 440 z "},"Ä":{"ha":894,"x_min":-22,"x_max":851,"o":"m -22 0 l 205 446 l 405 840 l 446 926 q 483 925 463 925 q 519 926 503 925 l 651 553 l 851 0 q 821 1 833 1 q 790 0 807 1 q 719 215 771 65 q 637 442 667 366 l 254 442 l 40 0 q 9 1 23 1 q -22 0 -5 1 m 275 486 l 622 486 l 477 884 l 275 486 m 538 1074 l 541 1141 q 575 1140 557 1140 q 610 1141 593 1140 l 608 1074 q 573 1074 591 1074 q 538 1074 555 1074 m 368 1074 l 370 1141 q 404 1140 387 1140 q 439 1141 422 1140 l 437 1074 q 402 1074 420 1074 q 368 1074 384 1074 z "},"Å":{"ha":894,"x_min":-22,"x_max":851,"o":"m 604 1107 q 588 1047 604 1076 q 544 1003 572 1019 q 484 987 516 987 q 424 1003 452 987 q 379 1047 395 1019 q 363 1107 363 1076 q 379 1167 363 1139 q 424 1212 395 1196 q 484 1227 452 1227 q 544 1212 516 1227 q 588 1167 572 1196 q 604 1107 604 1139 m 562 1107 q 539 1162 562 1139 q 484 1185 516 1185 q 429 1162 452 1185 q 406 1107 406 1139 q 429 1052 406 1075 q 484 1029 452 1029 q 539 1052 516 1029 q 562 1107 562 1075 m -22 0 l 205 446 l 405 840 l 446 926 q 483 925 463 925 q 519 926 503 925 l 651 553 l 851 0 q 821 1 833 1 q 790 0 807 1 q 719 215 771 65 q 637 442 667 366 l 254 442 l 40 0 q 9 1 23 1 q -22 0 -5 1 m 275 486 l 622 486 l 477 884 l 275 486 z "},"Ç":{"ha":848,"x_min":72,"x_max":794,"o":"m 783 72 q 774 16 778 48 q 645 -7 705 -1 q 536 -14 584 -14 q 348 18 437 -14 q 195 112 259 50 q 102 261 132 175 q 72 442 72 347 q 107 647 72 548 q 209 811 142 746 q 370 908 276 877 q 570 940 464 940 q 648 937 606 940 q 716 929 690 933 q 788 916 743 925 q 794 857 789 888 q 666 890 720 882 q 562 898 612 898 q 393 871 474 898 q 251 784 313 844 q 156 635 189 724 q 123 452 123 547 q 151 279 123 361 q 233 141 178 197 q 366 57 289 85 q 533 28 442 28 q 783 72 645 28 m 556 -71 q 463 -258 477 -225 q 414 -258 439 -258 q 366 -258 388 -258 q 420 -188 387 -229 q 513 -71 454 -148 q 534 -72 524 -72 q 556 -71 546 -72 z "},"É":{"ha":728,"x_min":101,"x_max":665,"o":"m 101 0 q 124 474 114 184 q 135 926 135 765 q 418 925 286 925 l 665 926 q 663 878 663 899 l 608 882 q 535 884 587 884 q 433 884 483 884 q 189 884 272 884 l 175 495 q 363 493 277 493 q 614 495 465 493 q 610 450 611 475 l 355 452 q 173 450 310 452 l 159 43 l 353 42 q 512 43 468 42 q 633 48 557 44 q 630 0 630 21 q 392 1 467 1 l 101 0 m 374 1013 q 395 1081 384 1046 q 434 1202 407 1116 q 473 1201 451 1201 q 513 1202 496 1201 q 458 1111 496 1176 q 401 1013 419 1045 q 387 1014 396 1014 q 374 1013 379 1014 z "},"Ñ":{"ha":1008,"x_min":101,"x_max":913,"o":"m 101 0 l 117 267 l 136 817 l 138 926 q 178 925 154 925 q 220 926 203 925 q 276 837 254 871 q 370 702 298 803 l 718 200 q 825 48 770 123 l 854 821 l 857 926 q 884 925 874 925 q 913 926 895 925 l 900 713 l 878 134 l 876 0 q 834 1 852 1 q 793 0 817 1 l 669 184 l 239 803 l 189 871 q 186 800 187 837 l 161 165 l 158 0 q 130 1 140 1 q 101 0 119 1 m 385 1045 q 386 1092 385 1072 q 392 1128 387 1112 q 404 1154 396 1144 q 425 1169 412 1163 q 449 1175 437 1175 q 490 1164 468 1175 q 566 1111 513 1152 q 591 1094 581 1099 q 612 1088 602 1088 q 633 1095 624 1088 q 646 1117 642 1101 q 650 1168 650 1132 q 670 1167 662 1167 q 689 1168 678 1167 q 680 1089 688 1115 q 657 1052 671 1064 q 622 1040 643 1040 q 592 1046 608 1040 q 544 1077 577 1053 q 481 1120 496 1112 q 456 1128 467 1128 q 442 1125 449 1128 q 431 1114 435 1122 q 424 1092 426 1105 q 422 1045 422 1078 q 403 1046 410 1046 q 385 1045 395 1046 z "},"Ö":{"ha":1080,"x_min":72,"x_max":1017,"o":"m 564 940 q 747 911 661 940 q 898 816 833 882 q 990 665 962 750 q 1017 484 1017 580 q 986 282 1017 379 q 892 119 955 185 q 734 20 829 54 q 536 -14 640 -14 q 345 17 436 -14 q 191 110 253 49 q 101 258 130 172 q 72 439 72 345 q 107 646 72 546 q 209 812 142 746 q 369 909 276 878 q 564 940 462 940 m 562 898 q 385 869 468 898 q 241 775 302 840 q 152 623 180 711 q 123 439 123 535 q 153 267 123 349 q 241 130 183 184 q 376 52 298 75 q 540 28 454 28 q 712 54 631 28 q 852 142 793 81 q 939 291 911 204 q 966 473 966 377 q 941 648 966 565 q 859 788 916 730 q 726 872 803 846 q 562 898 648 898 m 618 1074 l 620 1141 q 654 1140 637 1140 q 689 1141 672 1140 l 687 1074 q 652 1074 670 1074 q 618 1074 634 1074 m 447 1074 l 449 1141 q 484 1140 466 1140 q 518 1141 501 1140 l 516 1074 q 481 1074 499 1074 q 447 1074 463 1074 z "},"Ü":{"ha":977,"x_min":110,"x_max":886,"o":"m 132 926 q 162 925 149 925 q 193 926 176 925 l 162 370 l 161 319 l 161 308 q 182 175 161 227 q 249 89 203 123 q 351 41 296 54 q 471 28 406 28 q 591 41 534 28 q 671 70 635 50 q 724 109 701 85 q 765 163 748 133 q 789 227 781 193 q 806 386 802 292 l 820 665 q 827 926 827 822 q 857 925 844 925 q 886 926 869 925 l 869 617 l 857 345 q 837 197 852 256 q 809 130 827 161 q 767 78 791 100 q 700 33 739 52 q 608 0 657 11 q 473 -14 543 -14 q 336 1 397 -14 q 236 42 281 14 q 162 106 191 70 q 124 182 138 135 q 110 295 110 229 q 114 435 110 355 l 130 798 q 132 926 132 861 m 571 1074 l 573 1141 q 608 1140 590 1140 q 642 1141 625 1140 l 640 1074 q 606 1074 623 1074 q 571 1074 587 1074 m 400 1074 l 402 1141 q 437 1140 419 1140 q 471 1141 454 1140 l 469 1074 q 435 1074 452 1074 q 400 1074 416 1074 z "},"á":{"ha":692,"x_min":31,"x_max":605,"o":"m 123 613 q 131 666 128 636 q 251 692 200 685 q 354 699 302 699 q 466 689 414 699 q 551 653 518 678 q 594 597 584 629 q 605 532 605 565 q 603 446 605 498 q 596 334 600 394 q 589 185 592 275 q 585 57 585 96 l 585 0 q 557 1 568 1 q 528 0 545 1 q 542 168 538 104 q 548 307 545 233 q 554 446 550 381 q 522 419 533 428 q 497 404 511 411 q 466 390 484 397 q 431 378 447 383 q 356 357 416 373 q 270 332 296 340 q 180 296 212 313 q 122 256 145 278 q 92 214 102 236 q 81 159 81 189 q 108 83 81 115 q 175 37 134 50 q 272 24 215 24 q 327 27 300 24 q 377 35 353 30 q 444 54 400 40 q 434 3 438 28 q 345 -11 379 -8 q 280 -14 311 -14 q 175 -5 223 -14 q 94 29 127 3 q 46 89 62 55 q 31 160 31 123 q 40 215 31 189 q 69 267 50 242 q 113 304 85 287 q 183 341 144 326 q 279 374 228 359 q 391 403 294 378 q 475 432 435 414 q 536 480 514 449 q 557 543 557 511 q 547 587 557 566 q 511 627 537 608 q 446 654 485 646 q 365 661 408 661 q 272 655 315 661 q 199 640 229 648 q 123 613 169 631 m 323 771 q 345 840 333 805 q 383 960 356 874 q 422 960 400 960 q 462 960 445 960 q 407 869 446 935 q 351 771 368 804 q 336 772 345 772 q 323 771 328 772 z "},"à":{"ha":692,"x_min":31,"x_max":605,"o":"m 123 613 q 131 666 128 636 q 251 692 200 685 q 354 699 302 699 q 466 689 414 699 q 551 653 518 678 q 594 597 584 629 q 605 532 605 565 q 603 446 605 498 q 596 334 600 394 q 589 185 592 275 q 585 57 585 96 l 585 0 q 557 1 568 1 q 528 0 545 1 q 542 168 538 104 q 548 307 545 233 q 554 446 550 381 q 522 419 533 428 q 497 404 511 411 q 466 390 484 397 q 431 378 447 383 q 356 357 416 373 q 270 332 296 340 q 180 296 212 313 q 122 256 145 278 q 92 214 102 236 q 81 159 81 189 q 108 83 81 115 q 175 37 134 50 q 272 24 215 24 q 327 27 300 24 q 377 35 353 30 q 444 54 400 40 q 434 3 438 28 q 345 -11 379 -8 q 280 -14 311 -14 q 175 -5 223 -14 q 94 29 127 3 q 46 89 62 55 q 31 160 31 123 q 40 215 31 189 q 69 267 50 242 q 113 304 85 287 q 183 341 144 326 q 279 374 228 359 q 391 403 294 378 q 475 432 435 414 q 536 480 514 449 q 557 543 557 511 q 547 587 557 566 q 511 627 537 608 q 446 654 485 646 q 365 661 408 661 q 272 655 315 661 q 199 640 229 648 q 123 613 169 631 m 393 771 q 379 772 387 772 q 365 771 370 772 q 326 839 342 811 l 254 960 q 293 960 271 960 q 332 960 315 960 l 393 771 z "},"â":{"ha":692,"x_min":31,"x_max":605,"o":"m 123 613 q 131 666 128 636 q 251 692 200 685 q 354 699 302 699 q 466 689 414 699 q 551 653 518 678 q 594 597 584 629 q 605 532 605 565 q 603 446 605 498 q 596 334 600 394 q 589 185 592 275 q 585 57 585 96 l 585 0 q 557 1 568 1 q 528 0 545 1 q 542 168 538 104 q 548 307 545 233 q 554 446 550 381 q 522 419 533 428 q 497 404 511 411 q 466 390 484 397 q 431 378 447 383 q 356 357 416 373 q 270 332 296 340 q 180 296 212 313 q 122 256 145 278 q 92 214 102 236 q 81 159 81 189 q 108 83 81 115 q 175 37 134 50 q 272 24 215 24 q 327 27 300 24 q 377 35 353 30 q 444 54 400 40 q 434 3 438 28 q 345 -11 379 -8 q 280 -14 311 -14 q 175 -5 223 -14 q 94 29 127 3 q 46 89 62 55 q 31 160 31 123 q 40 215 31 189 q 69 267 50 242 q 113 304 85 287 q 183 341 144 326 q 279 374 228 359 q 391 403 294 378 q 475 432 435 414 q 536 480 514 449 q 557 543 557 511 q 547 587 557 566 q 511 627 537 608 q 446 654 485 646 q 365 661 408 661 q 272 655 315 661 q 199 640 229 648 q 123 613 169 631 m 237 785 q 328 946 300 892 q 372 945 351 945 q 416 946 394 945 q 502 785 452 876 q 482 786 490 786 q 463 785 475 786 l 372 912 l 272 785 q 254 786 262 786 q 237 785 246 786 z "},"ä":{"ha":692,"x_min":31,"x_max":605,"o":"m 123 613 q 131 666 128 636 q 251 692 200 685 q 354 699 302 699 q 466 689 414 699 q 551 653 518 678 q 594 597 584 629 q 605 532 605 565 q 603 446 605 498 q 596 334 600 394 q 589 185 592 275 q 585 57 585 96 l 585 0 q 557 1 568 1 q 528 0 545 1 q 542 168 538 104 q 548 307 545 233 q 554 446 550 381 q 522 419 533 428 q 497 404 511 411 q 466 390 484 397 q 431 378 447 383 q 356 357 416 373 q 270 332 296 340 q 180 296 212 313 q 122 256 145 278 q 92 214 102 236 q 81 159 81 189 q 108 83 81 115 q 175 37 134 50 q 272 24 215 24 q 327 27 300 24 q 377 35 353 30 q 444 54 400 40 q 434 3 438 28 q 345 -11 379 -8 q 280 -14 311 -14 q 175 -5 223 -14 q 94 29 127 3 q 46 89 62 55 q 31 160 31 123 q 40 215 31 189 q 69 267 50 242 q 113 304 85 287 q 183 341 144 326 q 279 374 228 359 q 391 403 294 378 q 475 432 435 414 q 536 480 514 449 q 557 543 557 511 q 547 587 557 566 q 511 627 537 608 q 446 654 485 646 q 365 661 408 661 q 272 655 315 661 q 199 640 229 648 q 123 613 169 631 m 416 832 l 418 899 q 453 899 435 899 q 488 899 471 899 l 486 832 q 451 833 469 833 q 416 832 433 833 m 245 832 l 248 899 q 282 899 264 899 q 317 899 300 899 l 315 832 q 280 833 298 833 q 245 832 262 833 z "},"ã":{"ha":692,"x_min":31,"x_max":605,"o":"m 123 613 q 131 666 128 636 q 251 692 200 685 q 354 699 302 699 q 466 689 414 699 q 551 653 518 678 q 594 597 584 629 q 605 532 605 565 q 603 446 605 498 q 596 334 600 394 q 589 185 592 275 q 585 57 585 96 l 585 0 q 557 1 568 1 q 528 0 545 1 q 542 168 538 104 q 548 307 545 233 q 554 446 550 381 q 522 419 533 428 q 497 404 511 411 q 466 390 484 397 q 431 378 447 383 q 356 357 416 373 q 270 332 296 340 q 180 296 212 313 q 122 256 145 278 q 92 214 102 236 q 81 159 81 189 q 108 83 81 115 q 175 37 134 50 q 272 24 215 24 q 327 27 300 24 q 377 35 353 30 q 444 54 400 40 q 434 3 438 28 q 345 -11 379 -8 q 280 -14 311 -14 q 175 -5 223 -14 q 94 29 127 3 q 46 89 62 55 q 31 160 31 123 q 40 215 31 189 q 69 267 50 242 q 113 304 85 287 q 183 341 144 326 q 279 374 228 359 q 391 403 294 378 q 475 432 435 414 q 536 480 514 449 q 557 543 557 511 q 547 587 557 566 q 511 627 537 608 q 446 654 485 646 q 365 661 408 661 q 272 655 315 661 q 199 640 229 648 q 123 613 169 631 m 212 798 q 214 845 212 825 q 219 881 215 865 q 232 907 224 897 q 252 922 240 916 q 277 928 264 928 q 318 917 296 928 q 394 864 340 905 q 419 847 408 852 q 439 841 429 841 q 460 848 452 841 q 474 870 469 854 q 478 921 478 885 q 498 920 490 920 q 517 921 506 920 q 508 843 516 868 q 485 805 499 817 q 450 793 471 793 q 420 800 435 793 q 372 830 405 806 q 309 873 323 865 q 284 882 295 882 q 270 879 277 882 q 258 867 263 876 q 252 845 254 859 q 250 798 250 831 q 231 799 238 799 q 212 798 223 799 z "},"å":{"ha":692,"x_min":31,"x_max":605,"o":"m 123 613 q 131 666 128 636 q 251 692 200 685 q 354 699 302 699 q 466 689 414 699 q 551 653 518 678 q 594 597 584 629 q 605 532 605 565 q 603 446 605 498 q 596 334 600 394 q 589 185 592 275 q 585 57 585 96 l 585 0 q 557 1 568 1 q 528 0 545 1 q 542 168 538 104 q 548 307 545 233 q 554 446 550 381 q 522 419 533 428 q 497 404 511 411 q 466 390 484 397 q 431 378 447 383 q 356 357 416 373 q 270 332 296 340 q 180 296 212 313 q 122 256 145 278 q 92 214 102 236 q 81 159 81 189 q 108 83 81 115 q 175 37 134 50 q 272 24 215 24 q 327 27 300 24 q 377 35 353 30 q 444 54 400 40 q 434 3 438 28 q 345 -11 379 -8 q 280 -14 311 -14 q 175 -5 223 -14 q 94 29 127 3 q 46 89 62 55 q 31 160 31 123 q 40 215 31 189 q 69 267 50 242 q 113 304 85 287 q 183 341 144 326 q 279 374 228 359 q 391 403 294 378 q 475 432 435 414 q 536 480 514 449 q 557 543 557 511 q 547 587 557 566 q 511 627 537 608 q 446 654 485 646 q 365 661 408 661 q 272 655 315 661 q 199 640 229 648 q 123 613 169 631 m 486 889 q 469 829 486 857 q 425 785 453 801 q 365 768 397 768 q 305 785 333 768 q 261 829 277 801 q 245 889 245 857 q 261 949 245 921 q 305 993 277 977 q 365 1009 333 1009 q 425 993 397 1009 q 469 949 453 977 q 486 889 486 921 m 446 888 q 422 944 446 921 q 365 967 398 967 q 309 944 332 967 q 285 888 285 921 q 309 832 285 856 q 365 809 332 809 q 422 832 398 809 q 446 888 446 856 z "},"ç":{"ha":635,"x_min":63,"x_max":582,"o":"m 557 54 q 548 3 551 26 q 387 -14 462 -14 q 255 5 317 -14 q 150 69 194 25 q 84 179 106 113 q 63 317 63 245 q 97 506 63 416 q 204 647 130 595 q 403 699 277 699 q 577 674 494 699 q 582 627 578 652 q 471 655 511 648 q 398 661 431 661 q 272 634 327 661 q 181 556 217 606 q 129 444 144 506 q 114 319 114 382 q 131 194 114 252 q 185 99 148 136 q 277 43 222 62 q 391 24 331 24 q 461 30 424 24 q 557 54 498 37 m 412 -69 l 330 -232 q 285 -231 307 -231 q 239 -232 262 -231 q 380 -69 330 -130 q 397 -70 391 -70 q 412 -69 404 -70 z "},"é":{"ha":700,"x_min":63,"x_max":656,"o":"m 598 66 q 590 15 593 41 q 489 -8 534 -1 q 397 -14 444 -14 q 253 8 316 -14 q 146 81 191 30 q 82 196 101 132 q 63 332 63 260 q 96 508 63 426 q 203 645 128 591 q 388 699 277 699 q 526 671 464 699 q 622 579 587 643 q 656 428 656 515 q 654 397 656 412 l 118 396 q 115 330 115 352 q 134 205 115 265 q 191 104 153 144 q 283 43 229 63 q 396 24 336 24 q 598 66 487 24 m 124 433 l 606 433 q 601 505 606 479 q 583 556 596 530 q 552 602 570 583 q 510 634 534 621 q 456 654 486 648 q 394 661 427 661 q 323 653 358 661 q 260 631 289 645 q 207 594 232 616 q 166 547 182 572 q 142 497 151 521 q 124 433 134 474 m 346 771 q 368 840 356 805 q 406 960 379 874 q 446 960 423 960 q 485 960 468 960 q 430 869 469 935 q 374 771 391 804 q 359 772 368 772 q 346 771 351 772 z "},"è":{"ha":700,"x_min":63,"x_max":656,"o":"m 598 66 q 590 15 593 41 q 489 -8 534 -1 q 397 -14 444 -14 q 253 8 316 -14 q 146 81 191 30 q 82 196 101 132 q 63 332 63 260 q 96 508 63 426 q 203 645 128 591 q 388 699 277 699 q 526 671 464 699 q 622 579 587 643 q 656 428 656 515 q 654 397 656 412 l 118 396 q 115 330 115 352 q 134 205 115 265 q 191 104 153 144 q 283 43 229 63 q 396 24 336 24 q 598 66 487 24 m 124 433 l 606 433 q 601 505 606 479 q 583 556 596 530 q 552 602 570 583 q 510 634 534 621 q 456 654 486 648 q 394 661 427 661 q 323 653 358 661 q 260 631 289 645 q 207 594 232 616 q 166 547 182 572 q 142 497 151 521 q 124 433 134 474 m 415 771 q 401 772 410 772 q 387 771 393 772 q 349 839 365 811 l 276 960 q 315 960 293 960 q 355 960 338 960 l 415 771 z "},"ê":{"ha":700,"x_min":63,"x_max":656,"o":"m 598 66 q 590 15 593 41 q 489 -8 534 -1 q 397 -14 444 -14 q 253 8 316 -14 q 146 81 191 30 q 82 196 101 132 q 63 332 63 260 q 96 508 63 426 q 203 645 128 591 q 388 699 277 699 q 526 671 464 699 q 622 579 587 643 q 656 428 656 515 q 654 397 656 412 l 118 396 q 115 330 115 352 q 134 205 115 265 q 191 104 153 144 q 283 43 229 63 q 396 24 336 24 q 598 66 487 24 m 124 433 l 606 433 q 601 505 606 479 q 583 556 596 530 q 552 602 570 583 q 510 634 534 621 q 456 654 486 648 q 394 661 427 661 q 323 653 358 661 q 260 631 289 645 q 207 594 232 616 q 166 547 182 572 q 142 497 151 521 q 124 433 134 474 m 260 785 q 351 946 322 892 q 395 945 373 945 q 439 946 416 945 q 524 785 474 876 q 505 786 513 786 q 486 785 497 786 l 395 912 l 294 785 q 277 786 285 786 q 260 785 269 786 z "},"ë":{"ha":700,"x_min":63,"x_max":656,"o":"m 598 66 q 590 15 593 41 q 489 -8 534 -1 q 397 -14 444 -14 q 253 8 316 -14 q 146 81 191 30 q 82 196 101 132 q 63 332 63 260 q 96 508 63 426 q 203 645 128 591 q 388 699 277 699 q 526 671 464 699 q 622 579 587 643 q 656 428 656 515 q 654 397 656 412 l 118 396 q 115 330 115 352 q 134 205 115 265 q 191 104 153 144 q 283 43 229 63 q 396 24 336 24 q 598 66 487 24 m 124 433 l 606 433 q 601 505 606 479 q 583 556 596 530 q 552 602 570 583 q 510 634 534 621 q 456 654 486 648 q 394 661 427 661 q 323 653 358 661 q 260 631 289 645 q 207 594 232 616 q 166 547 182 572 q 142 497 151 521 q 124 433 134 474 m 437 832 l 439 899 q 474 899 456 899 q 509 899 492 899 l 507 832 q 472 833 490 833 q 437 832 454 833 m 267 832 l 269 899 q 303 899 286 899 q 338 899 321 899 l 336 832 q 301 833 319 833 q 267 832 283 833 z "},"í":{"ha":259,"x_min":91,"x_max":245,"o":"m 91 0 q 108 355 98 102 q 118 685 118 608 q 145 684 136 684 q 173 685 155 684 q 154 334 163 556 q 145 0 145 111 q 118 1 127 1 q 91 0 109 1 m 106 771 q 128 840 117 805 q 167 960 140 874 q 206 960 184 960 q 245 960 229 960 q 191 869 229 935 q 134 771 152 804 q 120 772 129 772 q 106 771 112 772 z "},"ì":{"ha":260,"x_min":43,"x_max":182,"o":"m 94 0 q 111 355 101 102 q 121 685 121 608 q 148 684 138 684 q 176 685 158 684 q 157 334 166 556 q 148 0 148 111 q 121 1 130 1 q 94 0 111 1 m 182 771 q 168 772 176 772 q 154 771 159 772 q 115 839 132 811 l 43 960 q 82 960 60 960 q 121 960 104 960 l 182 771 z "},"î":{"ha":260,"x_min":32,"x_max":296,"o":"m 107 0 q 124 355 115 102 q 134 685 134 608 q 161 684 152 684 q 189 685 172 684 q 171 334 180 556 q 161 0 161 111 q 134 1 144 1 q 107 0 125 1 m 32 785 q 123 946 94 892 q 167 945 145 945 q 211 946 189 945 q 296 785 246 876 q 277 786 285 786 q 258 785 269 786 l 167 912 l 66 785 q 49 786 57 786 q 32 785 41 786 z "},"ï":{"ha":260,"x_min":48,"x_max":290,"o":"m 115 0 q 132 355 122 102 q 142 685 142 608 q 169 684 159 684 q 197 685 179 684 q 178 334 187 556 q 169 0 169 111 q 142 1 151 1 q 115 0 132 1 m 219 832 l 221 899 q 256 899 238 899 q 290 899 273 899 l 288 832 q 254 833 271 833 q 219 832 235 833 m 48 832 l 50 899 q 85 899 67 899 q 119 899 102 899 l 117 832 q 83 833 100 833 q 48 832 64 833 z "},"ñ":{"ha":791,"x_min":81,"x_max":701,"o":"m 81 0 l 104 414 l 111 609 q 112 685 112 661 q 138 684 130 684 q 164 685 146 684 l 155 530 q 180 579 170 562 q 207 614 190 595 q 247 650 224 633 q 303 678 271 667 q 371 694 336 689 q 439 699 406 699 q 550 686 496 699 q 639 642 604 673 q 687 569 674 610 q 701 481 701 528 q 699 419 701 460 l 684 111 l 682 0 q 655 1 668 1 q 629 0 642 1 q 640 162 636 85 l 650 336 q 655 475 655 432 q 642 555 655 519 q 598 613 629 590 q 523 647 566 637 q 433 658 479 658 q 319 640 369 658 q 237 590 273 623 q 180 507 202 557 q 154 405 163 471 q 141 219 146 348 q 136 0 136 90 q 109 1 118 1 q 81 0 99 1 m 262 798 q 263 845 262 825 q 269 881 264 865 q 281 907 273 897 q 302 922 290 916 q 326 928 314 928 q 368 917 345 928 q 444 864 390 905 q 468 847 458 852 q 489 841 479 841 q 510 848 501 841 q 523 870 519 854 q 528 921 528 885 q 547 920 539 920 q 566 921 555 920 q 557 843 566 868 q 534 805 549 817 q 499 793 520 793 q 470 800 485 793 q 421 830 454 806 q 359 873 373 865 q 334 882 345 882 q 319 879 326 882 q 308 867 313 876 q 301 845 303 859 q 299 798 299 831 q 280 799 288 799 q 262 798 273 799 z "},"ó":{"ha":781,"x_min":63,"x_max":718,"o":"m 399 699 q 522 682 463 699 q 626 622 581 664 q 694 511 671 579 q 718 366 718 442 q 693 207 718 283 q 622 80 668 131 q 514 7 576 28 q 382 -14 452 -14 q 286 -2 333 -14 q 198 35 239 9 q 126 104 157 62 q 79 203 95 146 q 63 323 63 261 q 104 523 63 433 q 225 656 144 614 q 399 699 307 699 m 398 661 q 248 622 317 661 q 146 502 179 583 q 114 325 114 421 q 133 197 114 257 q 193 97 151 138 q 282 40 234 56 q 382 24 330 24 q 496 43 443 24 q 589 109 549 63 q 648 222 629 155 q 667 365 667 290 q 649 496 667 435 q 591 594 630 557 q 501 646 551 631 q 398 661 451 661 m 368 771 q 389 840 378 805 q 428 960 401 874 q 467 960 445 960 q 507 960 490 960 q 452 869 490 935 q 395 771 413 804 q 381 772 390 772 q 368 771 373 772 z "},"ò":{"ha":781,"x_min":63,"x_max":718,"o":"m 399 699 q 522 682 463 699 q 626 622 581 664 q 694 511 671 579 q 718 366 718 442 q 693 207 718 283 q 622 80 668 131 q 514 7 576 28 q 382 -14 452 -14 q 286 -2 333 -14 q 198 35 239 9 q 126 104 157 62 q 79 203 95 146 q 63 323 63 261 q 104 523 63 433 q 225 656 144 614 q 399 699 307 699 m 398 661 q 248 622 317 661 q 146 502 179 583 q 114 325 114 421 q 133 197 114 257 q 193 97 151 138 q 282 40 234 56 q 382 24 330 24 q 496 43 443 24 q 589 109 549 63 q 648 222 629 155 q 667 365 667 290 q 649 496 667 435 q 591 594 630 557 q 501 646 551 631 q 398 661 451 661 m 437 771 q 423 772 431 772 q 409 771 414 772 q 370 839 387 811 l 298 960 q 337 960 315 960 q 376 960 359 960 l 437 771 z "},"ô":{"ha":781,"x_min":63,"x_max":718,"o":"m 399 699 q 522 682 463 699 q 626 622 581 664 q 694 511 671 579 q 718 366 718 442 q 693 207 718 283 q 622 80 668 131 q 514 7 576 28 q 382 -14 452 -14 q 286 -2 333 -14 q 198 35 239 9 q 126 104 157 62 q 79 203 95 146 q 63 323 63 261 q 104 523 63 433 q 225 656 144 614 q 399 699 307 699 m 398 661 q 248 622 317 661 q 146 502 179 583 q 114 325 114 421 q 133 197 114 257 q 193 97 151 138 q 282 40 234 56 q 382 24 330 24 q 496 43 443 24 q 589 109 549 63 q 648 222 629 155 q 667 365 667 290 q 649 496 667 435 q 591 594 630 557 q 501 646 551 631 q 398 661 451 661 m 281 785 q 372 946 344 892 q 416 945 395 945 q 460 946 438 945 q 546 785 496 876 q 526 786 534 786 q 507 785 519 786 l 416 912 l 316 785 q 298 786 307 786 q 281 785 290 786 z "},"ö":{"ha":781,"x_min":63,"x_max":718,"o":"m 399 699 q 522 682 463 699 q 626 622 581 664 q 694 511 671 579 q 718 366 718 442 q 693 207 718 283 q 622 80 668 131 q 514 7 576 28 q 382 -14 452 -14 q 286 -2 333 -14 q 198 35 239 9 q 126 104 157 62 q 79 203 95 146 q 63 323 63 261 q 104 523 63 433 q 225 656 144 614 q 399 699 307 699 m 398 661 q 248 622 317 661 q 146 502 179 583 q 114 325 114 421 q 133 197 114 257 q 193 97 151 138 q 282 40 234 56 q 382 24 330 24 q 496 43 443 24 q 589 109 549 63 q 648 222 629 155 q 667 365 667 290 q 649 496 667 435 q 591 594 630 557 q 501 646 551 631 q 398 661 451 661 m 459 832 l 461 899 q 496 899 478 899 q 530 899 513 899 l 528 832 q 494 833 511 833 q 459 832 475 833 m 288 832 l 290 899 q 325 899 307 899 q 359 899 342 899 l 357 832 q 323 833 340 833 q 288 832 304 833 z "},"õ":{"ha":781,"x_min":63,"x_max":718,"o":"m 399 699 q 522 682 463 699 q 626 622 581 664 q 694 511 671 579 q 718 366 718 442 q 693 207 718 283 q 622 80 668 131 q 514 7 576 28 q 382 -14 452 -14 q 286 -2 333 -14 q 198 35 239 9 q 126 104 157 62 q 79 203 95 146 q 63 323 63 261 q 104 523 63 433 q 225 656 144 614 q 399 699 307 699 m 398 661 q 248 622 317 661 q 146 502 179 583 q 114 325 114 421 q 133 197 114 257 q 193 97 151 138 q 282 40 234 56 q 382 24 330 24 q 496 43 443 24 q 589 109 549 63 q 648 222 629 155 q 667 365 667 290 q 649 496 667 435 q 591 594 630 557 q 501 646 551 631 q 398 661 451 661 m 257 798 q 258 845 257 825 q 264 881 260 865 q 277 907 269 897 q 297 922 285 916 q 321 928 309 928 q 363 917 340 928 q 439 864 385 905 q 464 847 453 852 q 484 841 474 841 q 505 848 496 841 q 518 870 514 854 q 523 921 523 885 q 543 920 534 920 q 562 921 551 920 q 552 843 561 868 q 530 805 544 817 q 494 793 515 793 q 465 800 480 793 q 416 830 450 806 q 354 873 368 865 q 329 882 340 882 q 315 879 321 882 q 303 867 308 876 q 296 845 298 859 q 294 798 294 831 q 275 799 283 799 q 257 798 268 799 z "},"ú":{"ha":793,"x_min":94,"x_max":711,"o":"m 682 0 q 657 1 669 1 q 632 0 646 1 l 637 147 q 612 97 622 113 q 587 65 602 82 q 548 33 571 48 q 492 7 524 18 q 427 -9 460 -4 q 359 -14 393 -14 q 251 -1 301 -14 q 161 44 200 12 q 108 118 122 76 q 94 214 94 161 q 103 419 94 256 q 112 685 112 582 q 138 684 130 684 q 165 685 147 684 q 149 443 159 627 q 138 213 138 259 q 152 125 138 161 q 199 66 165 90 q 275 33 233 43 q 362 24 317 24 q 452 36 409 24 q 524 65 495 47 q 574 109 552 83 q 616 178 599 138 q 640 263 632 212 q 652 449 647 315 q 658 685 657 578 q 685 684 676 684 q 711 685 694 684 l 686 210 l 684 108 q 682 0 682 45 m 373 771 q 395 840 383 805 q 433 960 406 874 q 473 960 450 960 q 512 960 495 960 q 457 869 496 935 q 401 771 418 804 q 387 772 395 772 q 373 771 378 772 z "},"ù":{"ha":793,"x_min":94,"x_max":711,"o":"m 682 0 q 657 1 669 1 q 632 0 646 1 l 637 147 q 612 97 622 113 q 587 65 602 82 q 548 33 571 48 q 492 7 524 18 q 427 -9 460 -4 q 359 -14 393 -14 q 251 -1 301 -14 q 161 44 200 12 q 108 118 122 76 q 94 214 94 161 q 103 419 94 256 q 112 685 112 582 q 138 684 130 684 q 165 685 147 684 q 149 443 159 627 q 138 213 138 259 q 152 125 138 161 q 199 66 165 90 q 275 33 233 43 q 362 24 317 24 q 452 36 409 24 q 524 65 495 47 q 574 109 552 83 q 616 178 599 138 q 640 263 632 212 q 652 449 647 315 q 658 685 657 578 q 685 684 676 684 q 711 685 694 684 l 686 210 l 684 108 q 682 0 682 45 m 443 771 q 429 772 437 772 q 415 771 420 772 q 376 839 393 811 l 304 960 q 343 960 321 960 q 382 960 366 960 l 443 771 z "},"û":{"ha":793,"x_min":94,"x_max":711,"o":"m 682 0 q 657 1 669 1 q 632 0 646 1 l 637 147 q 612 97 622 113 q 587 65 602 82 q 548 33 571 48 q 492 7 524 18 q 427 -9 460 -4 q 359 -14 393 -14 q 251 -1 301 -14 q 161 44 200 12 q 108 118 122 76 q 94 214 94 161 q 103 419 94 256 q 112 685 112 582 q 138 684 130 684 q 165 685 147 684 q 149 443 159 627 q 138 213 138 259 q 152 125 138 161 q 199 66 165 90 q 275 33 233 43 q 362 24 317 24 q 452 36 409 24 q 524 65 495 47 q 574 109 552 83 q 616 178 599 138 q 640 263 632 212 q 652 449 647 315 q 658 685 657 578 q 685 684 676 684 q 711 685 694 684 l 686 210 l 684 108 q 682 0 682 45 m 288 785 q 378 946 350 892 q 422 945 401 945 q 467 946 444 945 q 552 785 502 876 q 532 786 541 786 q 513 785 525 786 l 422 912 l 322 785 q 304 786 313 786 q 288 785 296 786 z "},"ü":{"ha":793,"x_min":94,"x_max":711,"o":"m 682 0 q 657 1 669 1 q 632 0 646 1 l 637 147 q 612 97 622 113 q 587 65 602 82 q 548 33 571 48 q 492 7 524 18 q 427 -9 460 -4 q 359 -14 393 -14 q 251 -1 301 -14 q 161 44 200 12 q 108 118 122 76 q 94 214 94 161 q 103 419 94 256 q 112 685 112 582 q 138 684 130 684 q 165 685 147 684 q 149 443 159 627 q 138 213 138 259 q 152 125 138 161 q 199 66 165 90 q 275 33 233 43 q 362 24 317 24 q 452 36 409 24 q 524 65 495 47 q 574 109 552 83 q 616 178 599 138 q 640 263 632 212 q 652 449 647 315 q 658 685 657 578 q 685 684 676 684 q 711 685 694 684 l 686 210 l 684 108 q 682 0 682 45 m 466 832 l 468 899 q 503 899 485 899 q 537 899 520 899 l 535 832 q 500 833 518 833 q 466 832 482 833 m 295 832 l 297 899 q 332 899 314 899 q 366 899 349 899 l 364 832 q 330 833 347 833 q 295 832 311 833 z "},"†":{"ha":707,"x_min":56,"x_max":667,"o":"m 389 600 l 526 600 q 667 603 564 600 q 664 554 664 582 q 387 557 534 557 l 371 130 l 357 -301 q 331 -300 340 -300 q 304 -301 322 -300 l 335 557 l 196 557 q 56 554 162 557 q 58 603 58 574 q 337 600 188 600 l 345 825 q 347 926 346 855 q 374 925 366 925 q 402 926 385 925 l 389 600 z "},"°":{"ha":361,"x_min":76,"x_max":317,"o":"m 317 819 q 300 759 317 787 q 256 715 284 731 q 196 699 229 699 q 136 715 164 699 q 92 759 109 731 q 76 819 76 787 q 92 880 76 852 q 136 924 109 907 q 196 940 164 940 q 256 924 229 940 q 300 880 284 907 q 317 819 317 852 m 279 819 q 255 877 279 853 q 196 901 231 901 q 138 877 162 901 q 114 819 114 853 q 138 761 114 785 q 196 737 162 737 q 255 761 231 737 q 279 819 279 785 z "},"¢":{"ha":745,"x_min":119,"x_max":608,"o":"m 587 173 q 576 123 579 145 q 489 104 515 108 q 416 99 463 100 q 413 0 413 52 q 390 1 399 1 q 367 0 380 1 q 374 103 373 76 q 300 124 328 113 q 246 153 272 134 q 197 198 220 171 q 157 262 175 224 q 129 346 139 300 q 119 445 119 393 q 131 555 119 503 q 162 652 142 608 q 211 732 182 697 q 270 788 240 768 q 328 818 300 808 q 404 835 356 828 q 406 926 406 866 q 431 925 419 925 q 456 926 442 925 q 450 838 452 887 q 528 830 496 837 q 605 810 559 824 q 608 757 605 779 q 444 795 523 795 q 327 768 379 795 q 237 690 275 741 q 184 574 200 639 q 168 445 168 509 q 197 289 168 353 q 283 183 226 225 q 425 140 341 140 q 486 146 454 140 q 587 173 517 151 z "},"£":{"ha":745,"x_min":113,"x_max":714,"o":"m 714 56 q 703 1 707 28 q 608 -14 663 -14 q 535 -5 574 -14 q 438 27 497 3 q 359 57 379 50 q 317 68 339 64 q 272 73 295 73 q 210 64 238 73 q 162 42 182 55 q 113 0 142 29 q 115 72 115 39 q 163 116 146 99 q 198 158 180 134 q 228 211 215 182 q 248 272 241 240 q 255 338 255 304 q 235 446 255 389 l 113 443 q 120 481 118 464 l 223 479 q 190 555 215 499 q 156 635 165 612 q 143 683 148 658 q 139 732 139 709 q 174 840 139 791 q 275 914 209 888 q 430 940 342 940 q 499 936 465 940 q 590 918 534 931 q 597 869 593 893 q 495 893 542 886 q 414 899 448 899 q 298 878 352 899 q 216 816 245 857 q 186 732 186 774 q 189 701 186 718 q 197 664 192 684 q 217 610 203 644 l 247 539 q 271 479 262 501 q 562 481 388 479 q 555 443 557 461 q 282 446 422 446 q 299 341 299 393 q 292 270 299 304 q 271 207 284 236 q 243 155 258 178 q 199 98 229 133 q 253 110 235 107 q 288 112 272 112 q 352 104 321 112 q 427 76 382 96 q 497 48 472 57 q 550 35 522 40 q 605 29 578 29 q 650 34 626 29 q 714 56 674 38 z "},"§":{"ha":705,"x_min":87,"x_max":619,"o":"m 547 911 q 551 862 548 885 q 391 899 462 899 q 294 877 333 899 q 233 813 254 854 q 212 728 212 772 q 218 681 212 703 q 238 639 225 659 q 267 606 252 620 q 313 575 282 593 q 379 541 343 558 q 501 477 457 505 q 568 423 545 449 q 605 362 591 397 q 619 286 619 328 q 611 225 619 256 q 585 167 602 195 q 547 118 568 139 q 507 84 526 97 q 459 54 488 71 q 495 18 482 33 q 518 -17 508 3 q 533 -62 528 -37 q 539 -114 539 -87 q 472 -274 539 -211 q 300 -336 406 -336 q 238 -331 271 -336 q 149 -310 205 -326 q 144 -254 148 -283 q 235 -283 200 -275 q 302 -292 269 -292 q 401 -268 357 -292 q 468 -199 445 -245 q 491 -106 491 -153 q 472 -31 491 -67 q 416 28 452 5 q 337 71 379 52 q 222 126 252 109 q 165 166 192 143 q 121 214 139 189 q 95 267 103 239 q 87 328 87 295 q 95 390 87 359 q 120 450 103 421 q 158 500 136 478 q 199 536 180 523 q 250 566 218 549 q 211 603 224 588 q 187 638 198 617 q 171 681 176 659 q 165 728 165 704 q 196 838 165 787 q 280 915 227 889 q 402 940 333 940 q 547 911 475 940 m 425 77 q 477 107 459 95 q 513 137 494 119 q 547 179 532 155 q 569 231 562 204 q 576 283 576 258 q 572 321 576 303 q 561 356 568 339 q 541 389 553 372 q 510 421 528 405 q 469 450 491 437 q 388 492 453 460 q 282 545 322 524 q 234 516 252 528 q 194 482 216 504 q 157 435 172 460 q 134 385 141 409 q 127 336 127 361 q 132 297 127 316 q 143 263 136 279 q 164 231 151 247 q 197 197 177 214 q 242 166 217 180 q 323 126 262 155 q 425 77 374 103 z "},"•":{"ha":932,"x_min":275,"x_max":656,"o":"m 656 472 q 631 375 656 420 q 561 304 606 330 q 466 278 516 278 q 371 304 415 278 q 300 376 326 330 q 275 472 275 421 q 300 569 275 524 q 370 640 326 614 q 467 666 415 666 q 561 640 517 666 q 631 569 605 614 q 656 472 656 524 z "},"¶":{"ha":745,"x_min":97,"x_max":664,"o":"m 579 882 l 562 483 l 536 -321 q 513 -320 520 -320 q 490 -321 505 -320 l 533 882 l 439 882 l 414 222 l 396 -321 q 373 -320 380 -320 q 351 -321 366 -320 l 378 446 q 321 449 338 447 q 258 465 290 454 q 190 502 219 479 q 140 555 161 524 q 108 623 119 586 q 97 700 97 660 q 117 801 97 753 q 174 879 138 849 q 252 918 211 909 q 356 926 292 926 l 511 925 q 664 926 596 925 q 661 880 661 901 q 579 882 636 882 z "},"ß":{"ha":734,"x_min":81,"x_max":680,"o":"m 81 0 l 88 73 l 118 716 q 129 792 121 758 q 155 851 138 827 q 203 896 173 876 q 268 926 233 916 q 366 940 314 940 q 479 922 429 940 q 553 869 529 903 q 578 779 578 834 q 571 711 578 745 q 549 664 565 677 q 486 637 532 651 q 445 622 456 629 q 427 602 433 615 q 420 569 420 589 q 424 540 420 554 q 433 515 427 526 q 449 495 439 505 q 467 479 458 485 q 516 446 475 473 l 556 418 q 603 380 580 402 q 642 334 626 357 q 667 289 659 311 q 677 247 675 268 q 680 205 680 227 q 654 87 680 138 q 576 12 627 37 q 454 -14 524 -14 q 309 7 385 -14 q 302 62 308 33 q 392 33 356 41 q 461 24 429 24 q 550 47 511 24 q 609 109 589 70 q 629 199 629 149 q 625 243 629 222 q 612 284 621 264 q 592 318 604 303 q 564 350 581 334 q 536 374 547 366 q 481 413 526 382 l 441 440 q 410 466 423 453 q 389 491 396 479 q 378 519 382 503 q 374 559 374 536 q 380 606 374 585 q 393 637 385 627 q 413 655 400 648 q 454 672 426 663 q 493 686 483 680 q 510 697 504 691 q 519 715 515 704 q 525 741 523 726 q 527 776 527 757 q 517 832 527 808 q 484 873 507 856 q 431 896 460 890 q 374 902 402 902 q 279 887 319 902 q 224 852 249 876 q 186 798 199 828 q 166 696 170 763 q 149 344 162 635 q 137 0 140 153 q 109 1 119 1 q 81 0 99 1 z "},"®":{"ha":1080,"x_min":72,"x_max":1017,"o":"m 564 940 q 747 911 661 940 q 898 816 833 882 q 990 665 962 750 q 1017 484 1017 580 q 986 282 1017 379 q 892 119 955 185 q 734 20 829 54 q 536 -14 640 -14 q 345 17 436 -14 q 191 110 253 49 q 101 258 130 172 q 72 439 72 345 q 107 646 72 546 q 209 812 142 746 q 369 909 276 878 q 564 940 462 940 m 562 905 q 381 875 466 905 q 235 780 296 846 q 143 626 173 715 q 114 439 114 536 q 144 264 114 348 q 234 125 175 180 q 373 45 294 70 q 540 21 452 21 q 716 48 633 21 q 859 138 799 75 q 947 288 919 200 q 975 473 975 376 q 949 650 975 566 q 866 793 924 734 q 729 878 808 852 q 562 905 650 905 m 389 203 q 402 453 396 281 q 409 730 409 624 l 487 730 l 572 730 q 634 726 607 730 q 682 703 662 721 q 711 661 702 684 q 721 609 721 637 q 710 553 721 580 q 680 505 700 526 q 633 471 659 483 q 597 460 616 463 l 541 454 l 726 203 q 692 204 701 204 q 669 203 684 204 l 648 236 q 612 287 637 252 l 460 496 q 534 488 507 488 q 608 502 574 488 q 661 543 642 515 q 679 607 679 571 q 674 640 679 625 q 658 667 669 654 q 633 685 646 680 q 601 692 619 690 q 537 694 583 694 l 453 693 q 443 424 448 576 q 439 203 439 271 l 414 204 l 389 203 z "},"©":{"ha":1080,"x_min":72,"x_max":1017,"o":"m 564 940 q 747 911 661 940 q 898 816 833 882 q 990 665 962 750 q 1017 484 1017 580 q 986 282 1017 379 q 892 119 955 185 q 734 20 829 54 q 536 -14 640 -14 q 345 17 436 -14 q 191 110 253 49 q 101 258 130 172 q 72 439 72 345 q 107 646 72 546 q 209 812 142 746 q 369 909 276 878 q 564 940 462 940 m 562 905 q 381 875 466 905 q 235 780 296 846 q 143 626 173 715 q 114 439 114 536 q 144 264 114 348 q 234 125 175 180 q 373 45 294 70 q 540 21 452 21 q 716 48 633 21 q 859 138 799 75 q 947 288 919 200 q 975 473 975 376 q 949 650 975 566 q 866 793 924 734 q 729 878 808 852 q 562 905 650 905 m 719 260 q 711 214 714 241 q 568 196 637 196 q 462 213 513 196 q 372 266 410 230 q 316 351 334 302 q 298 456 298 401 q 332 602 298 534 q 433 704 366 670 q 589 739 500 739 q 719 724 654 739 q 724 677 719 703 q 644 697 675 692 q 583 702 612 702 q 456 673 512 702 q 370 588 401 645 q 340 460 340 530 q 365 345 340 397 q 444 262 389 292 q 568 232 498 232 q 719 260 633 232 z "},"™":{"ha":1040,"x_min":20,"x_max":985,"o":"m 429 398 l 435 457 q 441 526 437 470 l 472 925 q 503 924 490 924 q 532 925 516 924 l 706 450 l 904 878 l 924 925 q 954 924 940 924 q 985 925 968 924 l 981 705 q 980 591 980 629 q 983 398 980 473 l 958 399 q 933 398 950 399 q 938 604 935 418 q 941 863 941 790 q 886 745 936 854 l 729 398 q 704 399 712 399 q 680 398 696 399 l 625 546 q 507 862 591 640 q 501 792 504 838 l 479 476 q 476 398 477 448 l 452 399 l 429 398 m 166 398 q 186 888 175 518 l 174 888 q 20 885 98 888 q 22 925 22 904 q 221 924 130 924 q 397 925 336 924 q 394 894 394 903 q 395 885 394 890 q 245 888 344 888 l 229 888 q 218 585 225 807 q 214 465 214 484 l 214 398 l 190 399 l 166 398 z "},"´":{"ha":694,"x_min":324,"x_max":463,"o":"m 324 771 q 346 840 334 805 q 385 960 357 874 q 424 960 401 960 q 463 960 446 960 q 408 869 447 935 q 352 771 370 804 q 338 772 347 772 q 324 771 330 772 z "},"¨":{"ha":694,"x_min":245,"x_max":487,"o":"m 416 832 l 418 899 q 452 899 435 899 q 487 899 470 899 l 485 832 q 450 833 468 833 q 416 832 432 833 m 245 832 l 247 899 q 281 899 264 899 q 316 899 299 899 l 314 832 q 279 833 297 833 q 245 832 261 833 z "},"≠":{"ha":745,"x_min":81,"x_max":684,"o":"m 391 570 l 435 692 q 459 762 450 734 q 505 747 480 753 q 477 675 496 726 l 437 570 q 551 572 535 572 q 684 573 625 572 q 681 528 681 549 q 543 530 619 530 q 423 532 526 530 l 406 487 q 397 461 401 473 q 382 421 393 450 q 518 423 498 423 q 672 425 603 423 q 669 380 669 401 q 514 382 602 382 q 370 384 492 382 l 317 236 q 302 191 311 219 q 256 206 280 201 l 323 384 q 212 382 228 382 q 81 380 140 382 q 85 425 85 406 q 220 423 142 423 q 338 422 239 423 l 378 532 q 245 531 255 531 q 94 528 162 531 q 97 573 97 555 q 252 571 164 571 q 391 570 261 571 z "},"Æ":{"ha":1070,"x_min":-85,"x_max":1008,"o":"m -85 0 l 181 517 l 339 828 q 357 866 348 846 q 384 926 366 886 q 711 925 499 925 l 905 926 l 1008 926 q 1005 878 1005 899 q 884 881 943 880 q 469 884 692 884 l 553 491 q 779 489 650 489 q 952 491 886 489 q 949 444 949 471 l 886 447 l 857 448 l 808 448 l 706 448 l 615 449 l 561 449 l 648 43 q 810 42 752 42 q 962 48 869 42 q 959 0 959 21 q 792 1 862 1 l 606 0 l 524 387 q 510 449 522 397 l 198 449 l 45 150 l -26 0 q -56 1 -43 1 q -85 0 -68 1 m 218 491 l 502 491 l 477 614 q 460 693 463 686 l 417 888 q 218 491 317 694 z "},"Ø":{"ha":1080,"x_min":72,"x_max":1017,"o":"m 807 884 l 879 989 q 903 988 892 988 q 926 989 913 988 l 840 864 q 940 766 899 825 q 999 634 981 707 q 1017 484 1017 562 q 986 281 1017 378 q 890 118 954 184 q 731 19 825 52 q 532 -14 636 -14 q 398 2 465 -14 q 278 47 332 18 l 203 -63 q 178 -62 189 -62 q 153 -63 166 -62 l 243 68 q 113 226 154 129 q 72 439 72 323 q 107 647 72 547 q 210 813 143 747 q 371 909 277 879 q 566 940 464 940 q 694 926 632 940 q 807 884 757 911 m 269 106 l 781 848 q 677 885 737 873 q 558 898 618 898 q 384 868 466 898 q 241 775 301 839 q 152 623 180 711 q 123 439 123 535 q 159 250 123 340 q 269 106 195 161 m 815 827 l 303 83 q 367 54 336 65 q 445 36 399 43 q 542 28 491 28 q 714 55 633 28 q 854 145 795 83 q 940 294 913 208 q 966 477 966 380 q 930 678 966 586 q 815 827 894 770 z "},"∞":{"ha":932,"x_min":30,"x_max":901,"o":"m 466 439 q 355 311 411 353 q 225 269 299 269 q 123 296 168 269 q 54 371 77 323 q 30 476 30 420 q 54 578 30 533 q 125 650 77 623 q 227 677 172 677 q 282 670 256 677 q 333 649 307 663 q 382 611 358 634 q 425 565 406 589 q 465 507 444 541 q 546 609 508 574 q 621 661 584 645 q 703 677 659 677 q 808 651 762 677 q 877 576 853 625 q 901 473 901 528 q 878 368 901 414 q 807 295 854 321 q 704 269 760 269 q 626 283 663 269 q 549 335 589 298 q 466 439 509 372 m 441 473 q 343 593 393 551 q 229 636 293 636 q 150 615 186 636 q 95 556 114 595 q 77 473 77 517 q 95 391 77 428 q 150 332 113 355 q 230 310 187 310 q 282 318 256 310 q 335 346 308 326 q 383 391 361 366 q 441 473 405 416 m 490 473 q 590 351 540 393 q 703 310 640 310 q 781 331 745 310 q 836 390 817 351 q 854 473 854 429 q 837 555 854 518 q 782 614 819 591 q 701 636 744 636 q 650 628 676 636 q 598 601 625 621 q 549 556 572 582 q 490 473 526 530 z "},"±":{"ha":745,"x_min":71,"x_max":673,"o":"m 83 482 q 87 527 85 498 q 253 524 150 525 l 356 524 l 359 677 q 361 782 361 751 q 385 781 374 781 q 410 782 398 781 q 404 675 408 755 l 397 524 l 463 524 l 673 527 q 670 482 670 503 q 498 486 602 484 l 396 486 l 391 228 q 366 229 378 229 q 342 228 354 229 q 347 325 344 256 l 355 486 l 277 486 l 210 485 l 83 482 m 71 135 q 75 180 73 151 q 368 176 193 176 q 661 180 536 176 q 658 135 659 159 q 364 139 534 139 q 71 135 196 139 z "},"≤":{"ha":700,"x_min":49,"x_max":650,"o":"m 650 789 l 650 743 l 100 506 l 650 269 l 650 222 l 49 484 l 49 528 l 650 789 m 650 180 l 650 137 l 49 137 l 49 180 l 650 180 z "},"≥":{"ha":700,"x_min":49,"x_max":650,"o":"m 49 222 l 49 269 l 599 506 l 49 743 l 49 789 l 650 527 l 650 484 l 49 222 m 49 137 l 49 180 l 650 180 l 650 137 l 49 137 z "},"¥":{"ha":745,"x_min":50,"x_max":732,"o":"m 106 387 q 113 426 111 408 q 339 423 246 423 q 264 557 313 471 q 98 554 216 557 q 105 593 103 574 q 244 591 207 591 l 50 926 q 80 925 67 925 q 111 926 94 925 l 140 871 q 196 772 149 854 l 371 467 l 533 709 l 633 865 q 670 926 646 885 q 701 925 688 925 q 732 926 715 925 l 507 591 l 597 591 l 659 593 q 651 554 653 572 q 484 557 532 557 l 394 423 l 524 424 l 638 426 q 631 387 633 406 q 390 390 496 390 l 381 220 q 374 0 376 125 q 344 1 357 1 q 314 0 331 1 l 329 203 q 339 390 330 219 l 218 389 l 106 387 z "},"µ":{"ha":745,"x_min":73,"x_max":640,"o":"m 114 685 q 141 684 132 684 q 168 685 150 684 q 154 441 163 625 q 146 213 146 258 q 165 105 146 144 q 228 45 184 66 q 328 24 272 24 q 427 43 380 24 q 496 87 468 59 q 548 172 527 120 q 572 272 564 212 q 581 420 576 313 q 587 685 585 551 q 613 684 604 684 q 640 685 622 684 l 614 210 l 612 108 q 610 0 610 45 q 586 1 597 1 q 561 0 574 1 l 566 147 q 537 85 551 109 q 500 43 523 62 q 452 12 478 23 q 394 -7 425 0 q 325 -14 362 -14 q 208 10 258 -14 q 132 83 158 34 l 132 23 l 129 -170 l 128 -235 l 129 -301 q 101 -300 111 -300 q 73 -301 91 -300 q 102 244 90 -36 q 114 685 114 524 z "},"∂":{"ha":700,"x_min":59,"x_max":642,"o":"m 143 892 l 150 936 q 237 918 201 928 q 347 875 294 903 q 445 805 399 847 q 528 708 490 764 q 592 584 566 653 q 631 446 619 515 q 642 319 642 377 q 625 186 642 241 q 567 84 607 131 q 470 9 527 37 q 353 -18 413 -18 q 206 25 275 -18 q 98 139 138 67 q 59 297 59 211 q 100 454 59 379 q 209 567 140 528 q 352 606 277 606 q 419 598 386 606 q 482 576 452 591 q 534 538 511 561 q 580 477 556 515 q 542 586 558 546 q 498 667 526 625 q 439 743 471 709 q 368 805 408 777 q 290 850 328 833 q 213 878 252 868 q 143 892 188 885 m 595 302 q 568 435 595 375 q 485 531 541 495 q 355 568 428 568 q 243 537 304 568 q 144 438 182 507 q 106 293 106 369 q 140 157 106 220 q 231 57 174 94 q 353 21 288 21 q 444 41 399 21 q 525 99 489 60 q 578 192 561 138 q 595 302 595 245 z "},"∑":{"ha":932,"x_min":49,"x_max":825,"o":"m 812 1042 l 812 746 l 768 746 l 766 997 l 100 997 l 453 378 l 100 -304 l 779 -304 l 781 -55 l 825 -55 l 825 -347 l 49 -347 l 49 -296 l 399 378 l 49 995 l 49 1042 l 812 1042 z "},"∏":{"ha":943,"x_min":51,"x_max":893,"o":"m 51 1042 l 893 1042 l 893 998 l 787 998 l 787 -304 l 893 -304 l 893 -347 l 623 -347 l 623 -304 l 741 -304 l 741 998 l 203 998 l 203 -304 l 319 -304 l 319 -347 l 51 -347 l 51 -304 l 157 -304 l 157 998 l 51 998 l 51 1042 z "},"π":{"ha":729,"x_min":32,"x_max":697,"o":"m 133 0 l 133 622 l 32 622 l 32 664 l 697 664 l 697 622 l 597 622 l 597 0 l 551 0 l 551 622 l 179 622 l 179 0 l 133 0 z "},"∫":{"ha":700,"x_min":181,"x_max":519,"o":"m 181 -332 l 196 -291 q 227 -302 215 -300 q 250 -305 239 -305 q 285 -298 269 -305 q 309 -280 300 -291 q 320 -255 317 -270 q 326 -217 324 -241 q 327 -149 327 -194 l 327 838 q 328 889 327 845 q 331 949 328 933 q 344 987 335 971 q 367 1016 353 1003 q 403 1035 382 1028 q 450 1042 424 1042 q 479 1039 464 1042 q 519 1026 494 1037 l 504 985 q 473 997 485 995 q 450 1000 462 1000 q 420 995 434 1000 q 398 982 407 989 q 384 963 389 974 q 377 938 379 952 q 374 891 375 924 q 373 832 373 859 l 373 -143 q 370 -250 373 -220 q 351 -299 366 -279 q 309 -333 336 -319 q 245 -347 282 -347 q 218 -345 233 -347 q 181 -332 204 -342 z "},"ª":{"ha":447,"x_min":31,"x_max":393,"o":"m 85 726 q 92 772 90 749 q 170 788 138 784 q 234 793 201 793 q 326 781 289 793 q 378 746 362 769 q 393 688 393 723 q 392 636 393 666 q 388 572 391 606 q 384 486 386 538 q 382 411 382 434 l 382 370 l 358 371 l 334 370 q 341 458 338 421 q 345 546 344 495 l 349 624 q 328 610 336 614 q 306 600 321 606 q 267 588 290 594 l 216 574 q 164 558 191 568 q 120 539 138 549 q 93 518 102 528 q 79 496 83 507 q 75 471 75 484 q 90 429 75 447 q 129 404 105 411 q 184 397 152 397 q 231 401 207 397 q 299 418 255 404 q 289 373 292 392 q 189 362 236 362 q 102 373 134 362 q 50 411 70 384 q 31 470 31 437 q 39 511 31 492 q 63 545 47 530 q 104 572 79 560 q 170 597 129 585 q 256 619 191 603 q 333 654 314 634 q 352 694 352 673 q 325 740 352 722 q 241 758 298 758 q 169 752 204 758 q 85 726 134 746 z "},"º":{"ha":502,"x_min":53,"x_max":465,"o":"m 264 793 q 373 769 326 793 q 442 698 419 746 q 465 591 465 650 q 438 469 465 525 q 364 387 412 412 q 254 362 317 362 q 145 388 192 362 q 76 460 99 414 q 53 566 53 507 q 79 688 53 633 q 156 767 104 742 q 264 793 207 793 m 263 758 q 176 736 216 758 q 116 669 136 714 q 97 568 97 623 q 114 479 97 518 q 168 419 132 441 q 255 397 205 397 q 345 419 306 397 q 402 487 383 441 q 422 590 422 532 q 405 679 422 640 q 351 738 389 719 q 263 758 314 758 z "},"Ω":{"ha":932,"x_min":42,"x_max":890,"o":"m 42 0 l 42 43 l 332 43 q 261 86 286 68 q 174 166 217 119 q 100 266 130 213 q 56 378 71 319 q 42 500 42 436 q 98 727 42 626 q 251 888 154 829 q 466 948 348 948 q 680 889 583 948 q 833 728 777 830 q 890 499 890 627 q 879 393 890 444 q 847 297 867 342 q 796 212 827 253 q 722 130 766 170 q 660 79 690 100 q 600 43 639 64 l 890 43 l 890 0 l 536 0 l 536 40 q 608 84 576 63 q 675 136 639 104 q 745 211 712 168 q 799 300 777 254 q 832 396 821 347 q 842 498 842 446 q 795 699 842 608 q 663 848 748 790 q 466 906 577 906 q 278 854 364 906 q 140 707 191 802 q 89 497 89 612 q 100 396 89 446 q 133 299 111 347 q 187 211 155 252 q 256 137 218 170 q 324 84 293 104 q 396 40 355 64 l 396 0 l 42 0 z "},"æ":{"ha":1127,"x_min":26,"x_max":1083,"o":"m 115 614 q 121 665 119 642 q 184 684 159 678 q 252 694 210 690 q 334 699 294 699 q 411 694 374 699 q 473 680 448 689 q 515 660 498 671 q 545 635 533 649 q 564 604 556 622 q 577 552 571 587 q 626 617 605 595 q 679 660 646 640 q 748 689 711 680 q 824 699 785 699 q 955 668 895 699 q 1049 580 1015 637 q 1083 433 1083 522 q 1080 392 1083 414 l 578 392 q 574 315 574 342 q 606 165 574 234 q 697 60 637 97 q 840 24 758 24 q 914 31 875 24 q 1015 58 954 38 q 1006 4 1008 29 q 845 -14 922 -14 q 667 27 739 -14 q 560 146 595 68 q 524 319 524 224 q 528 380 524 347 q 545 467 531 413 q 507 422 524 437 q 455 394 489 408 q 371 366 422 380 q 268 332 319 351 q 187 300 216 314 q 140 274 158 287 q 106 243 121 262 q 84 205 92 225 q 77 163 77 184 q 101 87 77 121 q 174 39 126 54 q 274 24 221 24 q 363 34 311 24 q 467 64 416 44 q 456 13 460 40 q 275 -14 343 -14 q 149 6 210 -14 q 57 68 88 26 q 26 163 26 111 q 36 220 26 192 q 70 275 46 248 q 126 320 94 302 q 186 348 159 338 q 288 380 213 358 q 397 415 363 403 q 469 446 447 433 q 505 476 490 459 q 525 509 519 492 q 531 545 531 525 q 510 606 531 578 q 448 648 490 634 q 344 661 406 661 q 260 655 301 661 q 190 641 220 649 q 115 614 160 632 m 584 434 l 1034 434 q 1031 498 1034 474 q 1015 549 1027 522 q 983 598 1003 576 q 938 634 962 620 q 885 654 913 648 q 825 661 856 661 q 756 652 789 661 q 695 624 723 642 q 645 581 667 606 q 610 525 623 555 q 584 434 597 495 z "},"ø":{"ha":781,"x_min":63,"x_max":718,"o":"m 568 662 l 625 755 q 649 753 640 753 q 673 755 659 753 l 603 642 q 689 524 661 600 q 718 365 718 449 q 696 215 718 287 q 630 89 673 143 q 523 11 586 35 q 387 -14 460 -14 q 223 21 296 -14 l 163 -76 q 138 -75 150 -75 q 113 -76 125 -75 l 186 43 q 92 164 121 90 q 63 320 63 239 q 77 446 63 385 q 118 552 91 508 q 188 631 145 595 q 286 683 230 666 q 405 699 342 699 q 568 662 495 699 m 547 627 q 480 652 519 644 q 404 661 442 661 q 288 641 342 661 q 192 574 233 621 q 132 462 151 528 q 114 325 114 396 q 210 81 114 162 l 547 627 m 580 604 l 245 57 q 318 30 284 36 q 384 24 353 24 q 529 59 467 24 q 630 174 592 94 q 667 364 667 253 q 659 461 667 415 q 629 543 650 508 q 580 604 608 578 z "},"¿":{"ha":618,"x_min":44,"x_max":545,"o":"m 380 685 q 378 641 378 657 q 376 611 377 625 q 338 612 352 612 q 300 611 324 612 q 302 650 302 631 q 304 685 303 669 q 342 684 328 684 q 380 685 356 684 m 361 543 l 357 455 q 352 376 355 410 q 345 328 349 343 q 334 300 340 313 q 303 256 327 287 q 240 182 279 226 q 168 98 201 138 q 119 28 135 58 q 97 -21 102 -1 q 92 -61 92 -41 q 120 -146 92 -109 q 201 -201 147 -184 q 319 -218 254 -218 q 411 -211 364 -218 q 545 -184 458 -205 q 536 -235 538 -214 q 419 -250 478 -245 q 320 -254 361 -254 q 174 -234 239 -254 q 76 -166 108 -214 q 44 -65 44 -118 q 50 -16 44 -41 q 75 46 55 10 q 129 125 94 83 q 205 211 164 168 q 270 284 248 256 q 288 314 281 298 q 300 348 296 329 q 308 410 304 368 l 315 543 q 338 543 327 543 q 361 543 351 543 z "},"¡":{"ha":332,"x_min":111,"x_max":211,"o":"m 136 685 q 173 684 159 684 q 211 685 187 684 q 209 641 209 657 q 207 611 208 625 q 170 612 183 612 q 132 611 155 612 q 134 650 133 631 q 136 685 134 669 m 149 544 q 171 543 161 543 q 193 544 182 543 l 174 -159 q 173 -241 173 -210 q 142 -240 155 -240 q 111 -241 128 -240 l 118 -143 l 149 544 z "},"¬":{"ha":700,"x_min":49,"x_max":650,"o":"m 604 0 l 604 328 l 49 328 l 49 370 l 650 370 l 650 0 l 604 0 z "},"√":{"ha":932,"x_min":3,"x_max":928,"o":"m 928 1149 l 928 1106 l 639 1106 l 291 0 l 245 0 l 107 442 l 3 442 l 3 486 l 144 486 l 269 83 l 349 351 l 601 1149 l 928 1149 z "},"ƒ":{"ha":745,"x_min":-7,"x_max":699,"o":"m 425 750 q 611 753 515 750 q 604 715 607 736 q 420 718 500 718 l 302 58 q 285 -21 294 17 q 264 -86 276 -60 q 236 -129 252 -112 q 200 -158 220 -146 q 150 -178 180 -170 q 85 -185 120 -185 q 59 -184 72 -185 q 37 -182 46 -183 q 17 -178 27 -180 l -7 -172 q 1 -132 -2 -153 q 88 -146 49 -146 q 162 -131 132 -146 q 210 -89 192 -117 q 240 -11 229 -59 q 270 141 251 37 l 372 718 q 281 715 329 717 q 289 753 286 732 q 377 750 354 750 q 393 836 385 798 q 411 903 400 874 q 439 953 422 932 q 478 988 456 975 q 531 1010 500 1002 q 599 1019 563 1019 q 634 1017 614 1019 q 699 1004 655 1015 q 691 962 694 983 q 589 977 635 977 q 537 970 560 977 q 498 950 515 963 q 471 920 481 937 q 448 863 456 895 q 425 750 443 843 z "},"≈":{"ha":700,"x_min":19,"x_max":681,"o":"m 52 483 l 19 504 q 67 576 39 542 q 129 626 96 610 q 197 641 163 641 q 263 628 227 641 q 366 580 300 614 q 456 538 431 545 q 505 531 481 531 q 580 556 547 531 q 648 643 613 582 l 681 623 q 595 517 641 548 q 501 487 550 487 q 475 489 489 487 q 437 499 460 492 q 395 516 414 507 q 321 553 376 525 q 241 590 267 582 q 193 597 215 597 q 119 570 153 597 q 52 483 85 543 m 52 286 l 19 307 q 68 380 40 347 q 129 429 96 414 q 197 444 163 444 q 264 430 227 444 q 364 384 301 416 q 453 342 427 351 q 505 334 479 334 q 579 358 546 334 q 648 446 612 383 l 681 426 q 628 349 657 380 q 566 303 600 317 q 501 290 532 290 q 452 297 478 290 q 410 312 425 305 q 309 362 394 318 q 240 393 266 385 q 194 400 215 400 q 120 373 154 400 q 52 286 85 346 z "},"∆":{"ha":932,"x_min":52,"x_max":880,"o":"m 52 0 l 441 926 l 490 926 l 880 0 l 52 0 m 119 43 l 812 43 l 465 869 l 119 43 z "},"«":{"ha":526,"x_min":81,"x_max":435,"o":"m 263 599 l 186 433 l 151 355 l 179 275 q 210 193 195 229 q 239 115 224 157 q 218 115 228 115 q 197 115 208 115 l 177 157 q 151 211 170 174 l 81 355 q 219 599 138 447 q 241 597 231 597 q 263 599 253 597 m 435 599 l 357 433 l 322 355 l 350 275 q 381 193 367 229 q 410 115 395 157 q 389 115 399 115 q 368 115 378 115 l 252 355 q 391 599 310 447 q 412 597 401 597 q 435 599 425 597 z "},"»":{"ha":526,"x_min":81,"x_max":435,"o":"m 279 599 q 301 597 290 597 q 323 599 313 597 q 435 355 395 433 l 337 188 q 295 115 317 155 q 274 115 283 115 q 252 115 263 115 l 302 218 q 330 277 313 240 l 366 355 l 279 599 m 108 599 q 130 597 119 597 q 152 599 142 597 q 264 355 223 433 l 166 188 q 123 115 146 155 q 102 115 113 115 q 81 115 92 115 l 195 355 l 168 434 q 140 509 158 463 l 108 599 z "},"…":{"ha":800,"x_min":81,"x_max":690,"o":"m 81 0 q 84 44 83 28 q 85 74 84 60 q 123 73 109 73 q 161 74 137 73 q 159 35 159 54 q 157 0 158 16 q 119 1 133 1 q 81 0 105 1 m 346 0 q 348 44 348 28 q 350 74 349 60 q 388 73 374 73 q 425 74 402 73 q 423 35 424 54 q 421 0 422 16 q 384 1 397 1 q 346 0 370 1 m 611 0 q 613 44 612 28 q 614 74 614 60 q 652 73 639 73 q 690 74 667 73 q 688 35 689 54 q 686 0 688 16 q 649 1 663 1 q 611 0 635 1 z "}," ":{"ha":347,"x_min":0,"x_max":0,"o":""},"À":{"ha":894,"x_min":-22,"x_max":851,"o":"m -22 0 l 205 446 l 405 840 l 446 926 q 483 925 463 925 q 519 926 503 925 l 651 553 l 851 0 q 821 1 833 1 q 790 0 807 1 q 719 215 771 65 q 637 442 667 366 l 254 442 l 40 0 q 9 1 23 1 q -22 0 -5 1 m 275 486 l 622 486 l 477 884 l 275 486 m 503 1013 q 489 1014 497 1014 q 475 1013 480 1014 q 436 1080 452 1053 l 363 1202 q 403 1201 380 1201 q 442 1202 425 1201 l 503 1013 z "},"Ã":{"ha":894,"x_min":-22,"x_max":851,"o":"m -22 0 l 205 446 l 405 840 l 446 926 q 483 925 463 925 q 519 926 503 925 l 651 553 l 851 0 q 821 1 833 1 q 790 0 807 1 q 719 215 771 65 q 637 442 667 366 l 254 442 l 40 0 q 9 1 23 1 q -22 0 -5 1 m 275 486 l 622 486 l 477 884 l 275 486 m 336 1045 q 338 1092 336 1072 q 343 1128 339 1112 q 356 1154 348 1144 q 376 1169 364 1163 q 401 1175 389 1175 q 442 1164 420 1175 q 518 1111 465 1152 q 543 1094 532 1099 q 564 1088 553 1088 q 585 1095 576 1088 q 598 1117 593 1101 q 602 1168 602 1132 q 622 1167 614 1167 q 641 1168 630 1167 q 632 1089 640 1115 q 609 1052 623 1064 q 574 1040 595 1040 q 544 1046 559 1040 q 496 1077 529 1053 q 433 1120 448 1112 q 408 1128 419 1128 q 394 1125 401 1128 q 382 1114 387 1122 q 376 1092 378 1105 q 374 1045 374 1078 q 355 1046 362 1046 q 336 1045 347 1046 z "},"Õ":{"ha":1080,"x_min":72,"x_max":1017,"o":"m 564 940 q 747 911 661 940 q 898 816 833 882 q 990 665 962 750 q 1017 484 1017 580 q 986 282 1017 379 q 892 119 955 185 q 734 20 829 54 q 536 -14 640 -14 q 345 17 436 -14 q 191 110 253 49 q 101 258 130 172 q 72 439 72 345 q 107 646 72 546 q 209 812 142 746 q 369 909 276 878 q 564 940 462 940 m 562 898 q 385 869 468 898 q 241 775 302 840 q 152 623 180 711 q 123 439 123 535 q 153 267 123 349 q 241 130 183 184 q 376 52 298 75 q 540 28 454 28 q 712 54 631 28 q 852 142 793 81 q 939 291 911 204 q 966 473 966 377 q 941 648 966 565 q 859 788 916 730 q 726 872 803 846 q 562 898 648 898 m 416 1045 q 417 1092 416 1072 q 423 1128 418 1112 q 435 1154 427 1144 q 456 1169 444 1163 q 480 1175 468 1175 q 522 1164 499 1175 q 597 1111 544 1152 q 622 1094 612 1099 q 643 1088 633 1088 q 664 1095 655 1088 q 677 1117 673 1101 q 682 1168 682 1132 q 701 1167 693 1167 q 720 1168 709 1167 q 711 1089 720 1115 q 688 1052 703 1064 q 653 1040 674 1040 q 624 1046 639 1040 q 575 1077 608 1053 q 513 1120 527 1112 q 488 1128 498 1128 q 473 1125 480 1128 q 462 1114 467 1122 q 455 1092 457 1105 q 453 1045 453 1078 q 434 1046 441 1046 q 416 1045 427 1046 z "},"Œ":{"ha":1409,"x_min":72,"x_max":1345,"o":"m 1308 48 q 1304 0 1304 21 q 882 1 1154 1 q 787 0 812 1 q 711 -2 762 0 l 555 -8 q 514 -9 528 -9 q 337 20 422 -9 q 190 110 252 49 q 100 259 129 171 q 72 444 72 347 q 89 587 72 517 q 134 714 105 657 q 201 809 163 768 q 289 878 239 849 q 395 918 336 904 q 537 935 467 935 q 677 930 566 935 q 966 925 787 925 l 1345 926 q 1342 878 1342 899 q 1117 882 1234 882 l 892 882 q 842 884 887 882 l 826 491 q 1017 490 983 490 q 1289 496 1222 490 q 1286 446 1286 470 q 1111 450 1185 450 q 964 448 1078 450 q 823 446 850 446 l 807 43 l 877 41 q 1181 43 1123 41 q 1308 48 1238 44 m 755 43 l 791 882 q 596 892 632 891 q 540 894 561 894 q 387 872 461 894 q 253 793 313 850 q 158 641 192 735 q 123 445 123 546 q 142 301 123 371 q 199 177 161 231 q 286 92 237 124 q 394 46 334 60 q 522 33 455 33 q 599 35 557 33 l 755 43 z "},"œ":{"ha":1293,"x_min":63,"x_max":1249,"o":"m 1180 63 q 1173 13 1175 39 q 1069 -7 1120 -1 q 982 -14 1018 -14 q 913 -7 947 -14 q 849 13 880 0 q 794 44 819 26 q 749 83 768 62 q 717 131 730 105 q 687 205 703 157 q 656 129 671 159 q 614 71 642 98 q 552 25 587 43 q 474 -4 517 7 q 384 -14 431 -14 q 255 7 317 -14 q 149 74 193 28 q 84 185 104 119 q 63 326 63 252 q 88 480 63 406 q 159 604 113 555 q 269 676 205 652 q 401 699 333 699 q 488 690 446 699 q 564 663 530 680 q 622 623 597 646 q 662 572 646 600 q 696 490 678 545 q 732 569 715 541 q 775 622 749 597 q 834 664 800 647 q 906 690 868 682 q 985 699 945 699 q 1114 673 1054 699 q 1212 586 1175 648 q 1249 427 1249 525 q 1248 397 1249 414 l 720 396 q 715 319 715 349 q 750 168 715 239 q 844 60 784 97 q 989 24 904 24 q 1067 32 1026 24 q 1180 63 1107 39 m 725 432 l 1201 433 q 1172 569 1200 521 q 1095 639 1144 617 q 989 661 1046 661 q 913 651 950 661 q 846 624 876 642 q 794 581 817 606 q 756 526 771 556 q 725 432 741 495 m 405 661 q 285 638 342 661 q 189 571 228 616 q 132 461 149 526 q 114 323 114 397 q 129 206 114 260 q 182 109 144 152 q 272 45 220 66 q 385 24 323 24 q 507 48 450 24 q 598 121 564 73 q 651 236 633 168 q 669 369 669 304 q 635 530 669 459 q 541 631 601 600 q 405 661 480 661 z "},"–":{"ha":745,"x_min":65,"x_max":669,"o":"m 65 332 q 68 380 68 360 q 369 377 205 377 q 669 380 527 377 q 667 332 667 353 q 366 336 529 336 q 65 332 208 336 z "},"—":{"ha":948,"x_min":-2,"x_max":949,"o":"m -2 332 q 1 380 1 360 q 475 377 209 377 q 949 380 703 377 q 947 332 947 353 q 473 336 730 336 q -2 332 220 336 z "},"“":{"ha":446,"x_min":72,"x_max":410,"o":"m 248 714 q 287 780 265 745 q 319 833 309 814 l 373 926 q 391 925 385 925 q 410 926 399 925 q 340 714 364 800 q 294 715 317 715 q 248 714 271 715 m 72 714 q 111 780 90 745 q 143 833 133 814 l 197 926 q 216 925 209 925 q 235 926 224 925 q 164 714 189 800 q 118 715 141 715 q 72 714 95 715 z "},"”":{"ha":446,"x_min":72,"x_max":410,"o":"m 410 926 q 371 861 393 895 q 339 808 349 826 l 285 714 q 266 715 273 715 q 248 714 258 715 q 318 926 293 841 q 364 925 341 925 q 410 926 387 925 m 235 926 q 195 861 217 895 q 163 808 174 826 l 110 714 q 91 715 98 715 q 72 714 83 715 q 142 926 118 841 q 189 925 165 925 q 235 926 212 925 z "},"‘":{"ha":271,"x_min":72,"x_max":235,"o":"m 72 714 q 111 780 90 745 q 143 833 133 814 l 197 926 q 216 925 209 925 q 235 926 224 925 q 164 714 189 800 q 118 715 141 715 q 72 714 95 715 z "},"’":{"ha":271,"x_min":72,"x_max":235,"o":"m 235 926 q 195 861 217 895 q 163 808 174 826 l 110 714 q 91 715 98 715 q 72 714 83 715 q 142 926 118 841 q 189 925 165 925 q 235 926 212 925 z "},"÷":{"ha":745,"x_min":81,"x_max":672,"o":"m 352 648 l 355 712 q 387 711 371 711 q 419 712 404 711 l 416 648 q 384 650 400 650 q 352 648 368 650 m 85 499 q 378 496 208 496 q 672 499 546 496 q 669 454 669 475 q 375 458 546 458 q 81 454 207 458 q 85 499 85 481 m 336 242 l 338 305 q 370 304 355 304 q 403 305 387 304 l 399 242 q 368 243 383 243 q 336 242 351 243 z "},"◊":{"ha":932,"x_min":105,"x_max":826,"o":"m 466 962 l 826 463 l 466 -36 l 105 463 l 466 962 m 466 840 l 192 463 l 466 87 l 739 463 l 466 840 z "},"ÿ":{"ha":618,"x_min":-58,"x_max":639,"o":"m -54 -315 q -58 -262 -54 -293 q -23 -276 -37 -272 q 10 -284 -9 -281 q 45 -287 29 -287 q 118 -267 84 -287 q 186 -187 152 -248 q 267 -21 221 -127 l 118 395 l 11 685 q 43 684 31 684 q 75 685 56 684 l 87 637 q 104 581 95 609 q 140 475 117 541 l 294 35 l 509 513 q 549 608 538 578 q 577 685 561 637 q 608 684 597 684 q 639 685 619 684 q 515 416 605 609 l 382 130 l 256 -149 q 204 -244 226 -214 q 168 -285 186 -268 q 136 -306 153 -297 q 90 -322 115 -317 q 36 -329 64 -329 q -54 -315 -7 -329 m 377 832 l 379 899 q 414 899 396 899 q 448 899 431 899 l 446 832 q 412 833 429 833 q 377 832 393 833 m 206 832 l 208 899 q 243 899 225 899 q 277 899 260 899 l 275 832 q 241 833 258 833 q 206 832 222 833 z "},"Ÿ":{"ha":669,"x_min":12,"x_max":695,"o":"m 277 0 l 297 294 l 304 420 l 213 581 l 12 926 q 43 925 30 925 q 73 926 56 925 l 102 871 q 159 772 111 854 l 334 467 l 496 709 l 595 865 q 633 926 608 885 q 664 925 650 925 q 695 926 677 925 l 353 417 q 351 354 353 384 l 342 180 q 338 94 340 141 l 337 0 q 307 1 319 1 q 277 0 294 1 m 412 1074 l 414 1141 q 449 1140 431 1140 q 484 1141 467 1140 l 481 1074 q 447 1074 465 1074 q 412 1074 429 1074 m 241 1074 l 243 1141 q 278 1140 260 1140 q 313 1141 296 1140 l 311 1074 q 276 1074 294 1074 q 241 1074 258 1074 z "},"∕":{"ha":137,"x_min":-235,"x_max":387,"o":"m -235 0 l 137 597 l 278 825 l 338 926 q 362 925 352 925 q 387 926 373 925 l 198 627 l -131 94 l -186 0 q -211 1 -200 1 q -235 0 -222 1 z "},"€":{"ha":755,"x_min":28,"x_max":730,"o":"m 730 861 q 529 903 612 903 q 150 538 191 903 l 656 538 l 648 496 l 147 496 q 146 450 146 481 l 146 431 l 642 431 l 635 389 l 147 389 q 498 24 172 24 q 720 68 591 24 l 711 17 q 507 -14 588 -14 q 212 88 317 -14 q 94 389 106 190 l 28 389 l 35 431 l 93 431 l 93 440 q 94 496 93 479 l 28 496 l 35 538 l 97 538 q 534 940 140 940 q 724 916 623 940 l 730 861 z "},"‹":{"ha":354,"x_min":81,"x_max":263,"o":"m 263 599 l 186 433 l 151 355 l 179 275 q 210 193 195 229 q 239 115 224 157 q 218 115 228 115 q 197 115 208 115 l 177 157 q 151 211 170 174 l 81 355 q 219 599 138 447 q 241 597 231 597 q 263 599 253 597 z "},"›":{"ha":355,"x_min":81,"x_max":264,"o":"m 108 599 q 130 597 119 597 q 152 599 142 597 q 264 355 223 433 l 166 188 q 123 115 146 155 q 102 115 113 115 q 81 115 92 115 l 195 355 l 168 434 q 140 509 158 463 l 108 599 z "},"":{"ha":593,"x_min":35,"x_max":519,"o":"m 97 0 l 109 240 l 121 647 l 35 647 q 39 685 38 665 l 123 685 l 125 761 q 132 827 127 804 q 150 877 138 858 q 183 912 162 897 q 236 937 205 928 q 307 946 267 946 q 399 932 355 946 q 406 886 401 912 q 307 908 353 908 q 255 900 279 908 q 217 882 231 892 q 194 854 203 871 q 179 817 184 837 q 172 756 174 796 q 170 685 172 748 l 372 685 q 369 647 370 667 l 169 647 l 153 0 q 125 1 136 1 q 97 0 115 1 m 448 859 l 450 926 q 485 925 467 925 q 519 926 503 925 l 517 859 q 483 860 500 860 q 448 859 465 860 m 424 0 q 441 355 431 102 q 451 685 451 608 q 478 684 469 684 q 506 685 488 684 q 487 334 496 556 q 478 0 478 111 q 451 1 460 1 q 424 0 441 1 z "},"":{"ha":597,"x_min":35,"x_max":516,"o":"m 97 0 l 109 240 l 121 647 l 35 647 q 39 685 38 665 l 123 685 l 125 761 q 132 827 127 804 q 150 877 138 858 q 183 912 162 897 q 236 937 205 928 q 307 946 267 946 q 399 932 355 946 q 406 886 401 912 q 307 908 353 908 q 255 900 279 908 q 217 882 231 892 q 194 854 203 871 q 179 817 184 837 q 172 756 174 796 q 170 685 172 748 l 372 685 q 369 647 370 667 l 169 647 l 153 0 q 125 1 136 1 q 97 0 115 1 m 424 0 q 461 926 455 566 q 488 925 479 925 q 516 926 498 925 l 499 595 l 480 0 q 452 1 463 1 q 424 0 441 1 z "},"‡":{"ha":707,"x_min":41,"x_max":667,"o":"m 389 600 l 526 600 q 667 603 565 600 q 664 554 664 582 q 387 557 534 557 l 370 81 l 511 82 q 652 85 545 82 q 649 36 649 64 l 488 39 l 368 40 l 357 -301 q 331 -300 340 -300 q 304 -301 322 -300 l 317 39 l 180 39 q 41 36 142 39 q 43 85 43 57 q 319 81 173 81 l 336 557 l 196 557 q 56 554 162 557 q 58 603 58 574 q 337 600 188 600 l 345 825 q 347 926 346 855 q 375 925 366 925 q 402 926 385 925 l 389 600 z "},"∙":{"ha":90,"x_min":7,"x_max":92,"o":"m 7 433 l 12 511 q 52 511 39 511 q 92 511 64 511 q 90 472 90 492 q 87 433 89 452 q 47 434 59 434 q 7 433 36 434 z "},"‚":{"ha":271,"x_min":21,"x_max":184,"o":"m 184 73 q 144 8 166 43 q 113 -45 123 -26 l 59 -138 q 40 -137 47 -137 q 21 -138 32 -137 q 92 73 67 -12 q 138 73 115 73 q 184 73 161 73 z "},"„":{"ha":446,"x_min":21,"x_max":359,"o":"m 359 73 q 320 8 342 43 q 288 -45 298 -26 l 234 -138 q 216 -137 222 -137 q 197 -138 208 -137 q 267 73 243 -12 q 313 73 290 73 q 359 73 336 73 m 184 73 q 144 8 166 43 q 113 -45 123 -26 l 59 -138 q 40 -137 47 -137 q 21 -138 32 -137 q 92 73 67 -12 q 138 73 115 73 q 184 73 161 73 z "},"‰":{"ha":1517,"x_min":49,"x_max":1475,"o":"m 250 935 q 345 904 306 935 q 404 812 385 872 q 422 669 422 751 q 398 492 422 574 q 331 374 374 410 q 225 339 288 339 q 126 370 166 339 q 68 461 87 401 q 49 593 49 520 q 59 719 49 656 q 94 833 70 782 q 158 910 119 884 q 250 935 198 935 m 248 899 q 166 866 203 899 q 110 763 130 833 q 90 593 90 692 q 107 469 90 517 q 156 398 125 422 q 227 375 188 375 q 294 396 264 375 q 344 463 324 417 q 372 565 364 509 q 380 675 380 621 q 364 800 380 753 q 318 873 348 847 q 248 899 288 899 m 212 0 l 594 604 l 794 926 q 820 925 807 925 q 846 926 834 925 l 482 350 l 265 0 q 239 1 252 1 q 212 0 224 1 m 833 587 q 929 555 890 587 q 987 464 968 524 q 1006 321 1006 404 q 982 144 1006 227 q 915 26 958 62 q 809 -9 871 -9 q 710 22 750 -9 q 652 113 671 54 q 633 244 633 172 q 643 371 633 309 q 678 485 654 434 q 742 562 703 536 q 833 587 782 587 m 832 551 q 750 518 787 551 q 694 415 713 485 q 674 244 674 345 q 691 121 674 168 q 740 51 709 74 q 810 27 772 27 q 878 48 848 27 q 928 115 908 69 q 956 217 948 161 q 964 327 964 273 q 948 452 964 404 q 902 525 932 499 q 832 551 872 551 m 1302 587 q 1398 555 1358 587 q 1456 464 1437 524 q 1475 321 1475 404 q 1451 144 1475 227 q 1383 26 1427 62 q 1278 -9 1340 -9 q 1179 22 1219 -9 q 1120 113 1139 54 q 1101 244 1101 172 q 1112 371 1101 309 q 1146 485 1122 434 q 1211 562 1171 536 q 1302 587 1251 587 m 1301 551 q 1218 518 1255 551 q 1162 415 1181 485 q 1143 244 1143 345 q 1160 121 1143 168 q 1209 51 1177 74 q 1279 27 1240 27 q 1347 48 1316 27 q 1397 115 1377 69 q 1424 217 1417 161 q 1432 327 1432 273 q 1416 452 1432 404 q 1370 525 1400 499 q 1301 551 1341 551 z "},"Â":{"ha":894,"x_min":-22,"x_max":851,"o":"m -22 0 l 205 446 l 405 840 l 446 926 q 483 925 463 925 q 519 926 503 925 l 651 553 l 851 0 q 821 1 833 1 q 790 0 807 1 q 719 215 771 65 q 637 442 667 366 l 254 442 l 40 0 q 9 1 23 1 q -22 0 -5 1 m 275 486 l 622 486 l 477 884 l 275 486 m 356 1027 q 447 1187 418 1134 q 491 1187 469 1187 q 535 1187 513 1187 q 621 1027 570 1118 q 601 1027 609 1027 q 582 1027 593 1027 l 491 1154 l 391 1027 q 373 1027 381 1027 q 356 1027 365 1027 z "},"Ê":{"ha":728,"x_min":101,"x_max":665,"o":"m 101 0 q 124 474 114 184 q 135 926 135 765 q 418 925 286 925 l 665 926 q 663 878 663 899 l 608 882 q 535 884 587 884 q 433 884 483 884 q 189 884 272 884 l 175 495 q 363 493 277 493 q 614 495 465 493 q 610 450 611 475 l 355 452 q 173 450 310 452 l 159 43 l 353 42 q 512 43 468 42 q 633 48 557 44 q 630 0 630 21 q 392 1 467 1 l 101 0 m 265 1027 q 356 1187 328 1134 q 400 1187 378 1187 q 444 1187 422 1187 q 530 1027 479 1118 q 510 1027 518 1027 q 491 1027 503 1027 l 400 1154 l 300 1027 q 282 1027 290 1027 q 265 1027 274 1027 z "},"Á":{"ha":894,"x_min":-22,"x_max":851,"o":"m -22 0 l 205 446 l 405 840 l 446 926 q 483 925 463 925 q 519 926 503 925 l 651 553 l 851 0 q 821 1 833 1 q 790 0 807 1 q 719 215 771 65 q 637 442 667 366 l 254 442 l 40 0 q 9 1 23 1 q -22 0 -5 1 m 275 486 l 622 486 l 477 884 l 275 486 m 465 1013 q 487 1081 475 1046 q 526 1202 498 1116 q 565 1201 543 1201 q 604 1202 587 1201 q 549 1111 588 1176 q 493 1013 511 1045 q 479 1014 488 1014 q 465 1013 471 1014 z "},"Ë":{"ha":728,"x_min":101,"x_max":665,"o":"m 101 0 q 124 474 114 184 q 135 926 135 765 q 418 925 286 925 l 665 926 q 663 878 663 899 l 608 882 q 535 884 587 884 q 433 884 483 884 q 189 884 272 884 l 175 495 q 363 493 277 493 q 614 495 465 493 q 610 450 611 475 l 355 452 q 173 450 310 452 l 159 43 l 353 42 q 512 43 468 42 q 633 48 557 44 q 630 0 630 21 q 392 1 467 1 l 101 0 m 447 1074 l 449 1141 q 484 1140 466 1140 q 518 1141 501 1140 l 516 1074 q 481 1074 499 1074 q 447 1074 463 1074 m 276 1074 l 278 1141 q 313 1140 295 1140 q 347 1141 330 1140 l 345 1074 q 311 1074 328 1074 q 276 1074 292 1074 z "},"È":{"ha":728,"x_min":101,"x_max":665,"o":"m 101 0 q 124 474 114 184 q 135 926 135 765 q 418 925 286 925 l 665 926 q 663 878 663 899 l 608 882 q 535 884 587 884 q 433 884 483 884 q 189 884 272 884 l 175 495 q 363 493 277 493 q 614 495 465 493 q 610 450 611 475 l 355 452 q 173 450 310 452 l 159 43 l 353 42 q 512 43 468 42 q 633 48 557 44 q 630 0 630 21 q 392 1 467 1 l 101 0 m 411 1013 q 397 1014 406 1014 q 383 1013 389 1014 q 345 1080 361 1053 l 272 1202 q 311 1201 289 1201 q 351 1202 334 1201 l 411 1013 z "},"Í":{"ha":289,"x_min":101,"x_max":291,"o":"m 101 0 l 116 272 l 130 680 l 132 821 q 133 926 133 877 q 163 925 151 925 q 194 926 177 925 l 182 680 l 165 175 l 162 0 q 132 1 145 1 q 101 0 118 1 m 152 1013 q 174 1082 162 1047 q 212 1202 185 1116 q 252 1202 229 1202 q 291 1202 274 1202 q 236 1111 275 1177 q 180 1013 197 1046 q 165 1015 174 1015 q 152 1013 157 1015 z "},"Î":{"ha":289,"x_min":50,"x_max":314,"o":"m 110 0 l 125 272 l 138 680 l 141 821 q 142 926 142 877 q 172 925 159 925 q 203 926 186 925 l 191 680 l 174 175 l 171 0 q 140 1 154 1 q 110 0 127 1 m 50 1027 q 140 1187 112 1134 q 184 1187 163 1187 q 229 1187 206 1187 q 314 1027 264 1118 q 294 1027 302 1027 q 275 1027 287 1027 l 184 1154 l 84 1027 q 66 1027 75 1027 q 50 1027 58 1027 z "},"Ï":{"ha":289,"x_min":69,"x_max":311,"o":"m 118 0 l 133 272 l 146 680 l 149 821 q 150 926 150 877 q 180 925 168 925 q 211 926 194 925 l 199 680 l 182 175 l 179 0 q 149 1 162 1 q 118 0 135 1 m 240 1074 l 242 1141 q 277 1140 259 1140 q 311 1141 294 1140 l 309 1074 q 275 1074 292 1074 q 240 1074 256 1074 m 69 1074 l 71 1141 q 106 1140 88 1140 q 140 1141 123 1140 l 138 1074 q 104 1074 121 1074 q 69 1074 85 1074 z "},"Ì":{"ha":289,"x_min":39,"x_max":178,"o":"m 85 0 l 100 272 l 114 680 l 117 821 q 117 926 117 877 q 148 925 135 925 q 178 926 161 925 l 166 680 l 150 175 l 146 0 q 116 1 130 1 q 85 0 102 1 m 178 1013 q 165 1015 173 1015 q 151 1013 156 1015 q 112 1081 128 1053 l 39 1202 q 79 1202 56 1202 q 118 1202 101 1202 l 178 1013 z "},"Ó":{"ha":1080,"x_min":72,"x_max":1017,"o":"m 564 940 q 747 911 661 940 q 898 816 833 882 q 990 665 962 750 q 1017 484 1017 580 q 986 282 1017 379 q 892 119 955 185 q 734 20 829 54 q 536 -14 640 -14 q 345 17 436 -14 q 191 110 253 49 q 101 258 130 172 q 72 439 72 345 q 107 646 72 546 q 209 812 142 746 q 369 909 276 878 q 564 940 462 940 m 562 898 q 385 869 468 898 q 241 775 302 840 q 152 623 180 711 q 123 439 123 535 q 153 267 123 349 q 241 130 183 184 q 376 52 298 75 q 540 28 454 28 q 712 54 631 28 q 852 142 793 81 q 939 291 911 204 q 966 473 966 377 q 941 648 966 565 q 859 788 916 730 q 726 872 803 846 q 562 898 648 898 m 545 1013 q 566 1081 555 1046 q 605 1202 578 1116 q 644 1201 622 1201 q 684 1202 667 1201 q 629 1111 667 1176 q 572 1013 590 1045 q 558 1014 567 1014 q 545 1013 550 1014 z "},"Ô":{"ha":1080,"x_min":72,"x_max":1017,"o":"m 564 940 q 747 911 661 940 q 898 816 833 882 q 990 665 962 750 q 1017 484 1017 580 q 986 282 1017 379 q 892 119 955 185 q 734 20 829 54 q 536 -14 640 -14 q 345 17 436 -14 q 191 110 253 49 q 101 258 130 172 q 72 439 72 345 q 107 646 72 546 q 209 812 142 746 q 369 909 276 878 q 564 940 462 940 m 562 898 q 385 869 468 898 q 241 775 302 840 q 152 623 180 711 q 123 439 123 535 q 153 267 123 349 q 241 130 183 184 q 376 52 298 75 q 540 28 454 28 q 712 54 631 28 q 852 142 793 81 q 939 291 911 204 q 966 473 966 377 q 941 648 966 565 q 859 788 916 730 q 726 872 803 846 q 562 898 648 898 m 435 1027 q 526 1187 498 1134 q 570 1187 549 1187 q 614 1187 592 1187 q 700 1027 650 1118 q 680 1027 688 1027 q 661 1027 673 1027 l 570 1154 l 470 1027 q 452 1027 460 1027 q 435 1027 444 1027 z "},"Ò":{"ha":1080,"x_min":72,"x_max":1017,"o":"m 564 940 q 747 911 661 940 q 898 816 833 882 q 990 665 962 750 q 1017 484 1017 580 q 986 282 1017 379 q 892 119 955 185 q 734 20 829 54 q 536 -14 640 -14 q 345 17 436 -14 q 191 110 253 49 q 101 258 130 172 q 72 439 72 345 q 107 646 72 546 q 209 812 142 746 q 369 909 276 878 q 564 940 462 940 m 562 898 q 385 869 468 898 q 241 775 302 840 q 152 623 180 711 q 123 439 123 535 q 153 267 123 349 q 241 130 183 184 q 376 52 298 75 q 540 28 454 28 q 712 54 631 28 q 852 142 793 81 q 939 291 911 204 q 966 473 966 377 q 941 648 966 565 q 859 788 916 730 q 726 872 803 846 q 562 898 648 898 m 582 1013 q 568 1014 576 1014 q 554 1013 559 1014 q 515 1080 532 1053 l 443 1202 q 482 1201 460 1201 q 522 1202 505 1201 l 582 1013 z "},"Ú":{"ha":977,"x_min":110,"x_max":886,"o":"m 132 926 q 162 925 149 925 q 193 926 176 925 l 162 370 l 161 319 l 161 308 q 182 175 161 227 q 249 89 203 123 q 351 41 296 54 q 471 28 406 28 q 591 41 534 28 q 671 70 635 50 q 724 109 701 85 q 765 163 748 133 q 789 227 781 193 q 806 386 802 292 l 820 665 q 827 926 827 822 q 857 925 844 925 q 886 926 869 925 l 869 617 l 857 345 q 837 197 852 256 q 809 130 827 161 q 767 78 791 100 q 700 33 739 52 q 608 0 657 11 q 473 -14 543 -14 q 336 1 397 -14 q 236 42 281 14 q 162 106 191 70 q 124 182 138 135 q 110 295 110 229 q 114 435 110 355 l 130 798 q 132 926 132 861 m 498 1013 q 519 1081 508 1046 q 558 1202 531 1116 q 597 1201 575 1201 q 637 1202 620 1201 q 582 1111 621 1176 q 526 1013 543 1045 q 511 1014 520 1014 q 498 1013 503 1014 z "},"Û":{"ha":977,"x_min":110,"x_max":886,"o":"m 132 926 q 162 925 149 925 q 193 926 176 925 l 162 370 l 161 319 l 161 308 q 182 175 161 227 q 249 89 203 123 q 351 41 296 54 q 471 28 406 28 q 591 41 534 28 q 671 70 635 50 q 724 109 701 85 q 765 163 748 133 q 789 227 781 193 q 806 386 802 292 l 820 665 q 827 926 827 822 q 857 925 844 925 q 886 926 869 925 l 869 617 l 857 345 q 837 197 852 256 q 809 130 827 161 q 767 78 791 100 q 700 33 739 52 q 608 0 657 11 q 473 -14 543 -14 q 336 1 397 -14 q 236 42 281 14 q 162 106 191 70 q 124 182 138 135 q 110 295 110 229 q 114 435 110 355 l 130 798 q 132 926 132 861 m 389 1027 q 480 1187 452 1134 q 524 1187 503 1187 q 568 1187 546 1187 q 654 1027 604 1118 q 634 1027 642 1027 q 615 1027 627 1027 l 524 1154 l 424 1027 q 406 1027 414 1027 q 389 1027 398 1027 z "},"Ù":{"ha":977,"x_min":110,"x_max":886,"o":"m 132 926 q 162 925 149 925 q 193 926 176 925 l 162 370 l 161 319 l 161 308 q 182 175 161 227 q 249 89 203 123 q 351 41 296 54 q 471 28 406 28 q 591 41 534 28 q 671 70 635 50 q 724 109 701 85 q 765 163 748 133 q 789 227 781 193 q 806 386 802 292 l 820 665 q 827 926 827 822 q 857 925 844 925 q 886 926 869 925 l 869 617 l 857 345 q 837 197 852 256 q 809 130 827 161 q 767 78 791 100 q 700 33 739 52 q 608 0 657 11 q 473 -14 543 -14 q 336 1 397 -14 q 236 42 281 14 q 162 106 191 70 q 124 182 138 135 q 110 295 110 229 q 114 435 110 355 l 130 798 q 132 926 132 861 m 535 1013 q 522 1014 530 1014 q 507 1013 513 1014 q 469 1080 485 1053 l 396 1202 q 435 1201 413 1201 q 475 1202 458 1201 l 535 1013 z "},"ı":{"ha":259,"x_min":91,"x_max":173,"o":"m 91 0 q 108 355 98 102 q 118 685 118 608 q 145 684 136 684 q 173 685 155 684 q 154 334 163 556 q 145 0 145 111 q 118 1 127 1 q 91 0 109 1 z "},"ˆ":{"ha":694,"x_min":238,"x_max":503,"o":"m 238 785 q 329 946 300 892 q 373 945 351 945 q 417 946 395 945 q 503 785 452 876 q 483 786 491 786 q 464 785 475 786 l 373 912 l 273 785 q 255 786 263 786 q 238 785 247 786 z "},"˜":{"ha":694,"x_min":214,"x_max":518,"o":"m 214 798 q 215 845 214 825 q 221 881 216 865 q 233 907 225 897 q 254 922 241 916 q 278 928 266 928 q 319 917 297 928 q 395 864 342 905 q 420 847 410 852 q 441 841 431 841 q 462 848 453 841 q 475 870 471 854 q 479 921 479 885 q 499 920 491 920 q 518 921 507 920 q 509 843 517 868 q 486 805 500 817 q 451 793 472 793 q 421 800 437 793 q 373 830 406 806 q 311 873 325 865 q 286 882 296 882 q 271 879 278 882 q 260 867 264 876 q 253 845 255 859 q 251 798 251 831 q 232 799 239 799 q 214 798 224 799 z "},"ˉ":{"ha":694,"x_min":213,"x_max":526,"o":"m 213 837 q 216 882 216 858 q 371 880 279 880 q 526 882 462 880 q 522 837 522 854 q 368 838 467 838 q 213 837 269 838 z "},"˘":{"ha":694,"x_min":235,"x_max":511,"o":"m 235 930 q 254 929 245 929 q 272 930 261 929 q 304 868 277 888 q 373 848 331 848 q 442 868 415 848 q 473 930 469 888 q 492 929 484 929 q 511 930 500 929 q 470 834 507 865 q 373 802 433 802 q 275 834 311 802 q 235 930 239 867 z "},"˙":{"ha":694,"x_min":328,"x_max":403,"o":"m 328 831 l 330 901 q 366 900 348 900 q 403 901 385 900 l 401 831 q 365 831 383 831 q 328 831 346 831 z "},"˚":{"ha":694,"x_min":245,"x_max":486,"o":"m 486 889 q 470 829 486 857 q 426 785 454 801 q 366 768 398 768 q 306 785 334 768 q 262 829 278 801 q 245 889 245 857 q 262 949 245 921 q 306 993 278 977 q 366 1009 334 1009 q 426 993 398 1009 q 470 949 454 977 q 486 889 486 921 m 446 888 q 422 944 446 921 q 366 967 399 967 q 309 944 333 967 q 286 888 286 921 q 309 832 286 856 q 366 809 333 809 q 422 832 399 809 q 446 888 446 856 z "},"¸":{"ha":694,"x_min":269,"x_max":441,"o":"m 441 -69 l 359 -232 q 314 -231 336 -231 q 269 -232 292 -231 q 410 -69 359 -130 q 426 -70 420 -70 q 441 -69 433 -70 z "},"˝":{"ha":694,"x_min":271,"x_max":543,"o":"m 271 776 l 294 846 q 328 956 302 871 q 368 955 346 955 q 408 956 391 955 q 356 870 393 932 q 302 776 319 808 q 287 777 296 777 q 271 776 277 777 m 407 776 q 428 843 416 808 q 464 956 439 877 q 504 955 481 955 q 543 956 526 955 q 491 869 527 929 q 437 776 456 809 q 422 777 431 777 q 407 776 413 777 z "},"˛":{"ha":694,"x_min":424,"x_max":591,"o":"m 481 7 l 530 7 q 492 -28 503 -15 q 477 -54 481 -41 q 472 -79 472 -67 q 486 -113 472 -98 q 530 -129 500 -129 q 591 -119 564 -129 q 586 -141 587 -137 q 582 -164 585 -146 q 522 -172 547 -172 q 448 -145 472 -172 q 424 -84 424 -119 q 436 -37 424 -60 q 481 7 449 -15 z "},"ˇ":{"ha":694,"x_min":229,"x_max":493,"o":"m 493 946 q 402 785 431 839 q 358 786 380 786 q 314 785 336 786 q 229 946 279 856 q 248 945 240 945 q 267 946 256 945 l 358 819 l 458 946 q 476 945 468 945 q 493 946 484 945 z "},"Ł":{"ha":626,"x_min":12,"x_max":614,"o":"m 418 667 q 418 636 418 650 q 418 606 418 623 q 173 418 326 538 l 159 43 l 298 42 q 504 43 448 42 q 614 48 560 45 q 610 0 610 21 q 369 1 467 1 l 100 0 q 113 185 110 130 l 121 387 l 12 298 q 13 328 13 315 q 12 359 13 342 q 123 441 65 397 l 130 631 q 132 722 132 667 l 136 926 q 166 925 153 925 q 196 926 179 925 l 175 472 q 418 667 298 567 z "},"ł":{"ha":283,"x_min":20,"x_max":278,"o":"m 20 353 q 21 384 21 372 q 20 414 21 402 q 122 490 81 459 q 135 926 131 700 q 163 925 153 925 q 191 926 173 925 l 174 616 l 171 522 q 278 609 216 557 q 277 578 277 589 q 278 548 277 564 q 169 467 227 511 l 154 0 q 126 1 136 1 q 98 0 116 1 l 115 313 l 119 435 q 20 353 66 392 z "},"Š":{"ha":614,"x_min":47,"x_max":545,"o":"m 52 28 q 47 90 52 55 q 281 28 176 28 q 391 47 342 28 q 466 106 439 67 q 493 195 493 145 q 486 243 493 220 q 463 289 479 265 q 406 350 446 313 q 272 465 366 387 l 218 509 q 165 560 191 534 q 122 609 139 587 q 97 650 105 632 q 83 690 88 668 q 79 734 79 711 q 109 837 79 789 q 197 912 138 884 q 347 940 256 940 q 508 922 410 940 q 514 865 509 896 q 410 891 452 884 q 332 898 369 898 q 221 876 264 898 q 154 817 178 854 q 130 739 130 780 q 136 697 130 718 q 156 655 142 676 q 193 608 170 633 q 253 550 216 583 q 352 467 290 517 q 437 394 413 416 q 483 349 461 373 q 518 300 505 324 q 538 250 532 276 q 545 196 545 224 q 512 84 545 132 q 417 11 480 36 q 277 -14 355 -14 q 179 -6 227 -14 q 52 28 132 2 m 488 1187 q 397 1027 426 1080 q 353 1027 375 1027 q 309 1027 332 1027 q 224 1187 275 1097 q 243 1187 235 1187 q 262 1187 251 1187 l 353 1061 l 454 1187 q 471 1187 463 1187 q 488 1187 479 1187 z "},"š":{"ha":499,"x_min":35,"x_max":435,"o":"m 41 13 q 35 71 39 45 q 136 37 89 47 q 223 28 184 28 q 312 43 275 28 q 368 87 349 58 q 387 148 387 116 q 384 175 387 162 q 374 202 381 189 q 359 226 368 215 q 335 252 351 237 q 300 283 320 266 q 236 337 279 301 q 164 399 193 373 q 118 452 136 425 q 91 501 99 479 q 83 547 83 524 q 108 623 83 586 q 179 680 133 660 q 297 699 226 699 q 431 684 357 699 q 435 626 432 654 q 358 651 392 644 q 288 657 323 657 q 207 644 244 657 q 151 605 170 631 q 132 550 132 580 q 136 519 132 534 q 149 491 140 505 q 172 461 158 476 q 208 426 186 446 q 272 371 230 406 q 334 318 313 336 q 369 285 354 300 q 396 252 383 270 q 418 217 410 234 q 430 183 426 200 q 434 148 434 165 q 409 67 434 105 q 336 7 384 29 q 221 -14 288 -14 q 158 -10 196 -14 q 98 -2 121 -6 q 41 13 75 3 m 423 946 q 332 785 361 839 q 288 786 310 786 q 244 785 267 786 q 159 946 210 856 q 178 945 170 945 q 197 946 186 945 l 288 819 l 389 946 q 406 945 398 945 q 423 946 414 945 z "},"Ž":{"ha":743,"x_min":37,"x_max":699,"o":"m 37 0 q 39 62 39 34 l 648 884 l 606 885 l 382 884 q 224 883 283 884 q 94 877 165 881 q 96 918 96 897 l 96 926 q 413 925 212 925 l 600 926 l 699 926 q 696 864 696 896 l 138 110 q 89 41 122 89 q 393 41 220 41 q 541 42 490 41 q 659 47 591 43 q 656 7 656 27 l 656 0 q 364 1 536 1 q 37 0 127 1 m 532 1187 q 441 1027 469 1080 q 397 1027 418 1027 q 353 1027 375 1027 q 267 1187 318 1097 q 287 1187 279 1187 q 306 1187 294 1187 l 397 1061 l 497 1187 q 515 1187 507 1187 q 532 1187 523 1187 z "},"ž":{"ha":568,"x_min":26,"x_max":524,"o":"m 26 0 q 28 59 28 31 l 111 165 l 434 588 q 475 644 448 606 q 332 646 397 646 q 76 640 199 646 q 78 685 78 664 q 307 684 192 684 l 524 685 q 522 633 522 665 l 522 626 l 75 41 q 212 39 138 39 q 495 47 389 39 q 492 0 492 20 q 274 1 382 1 l 75 1 l 26 0 m 430 946 q 339 785 368 839 q 295 786 317 786 q 251 785 273 786 q 165 946 216 856 q 185 945 177 945 q 204 946 193 945 l 295 819 l 395 946 q 413 945 405 945 q 430 946 421 945 z "},"¦":{"ha":700,"x_min":327,"x_max":373,"o":"m 327 926 l 373 926 l 373 477 l 327 477 l 327 926 m 327 213 l 373 213 l 373 -231 l 327 -231 l 327 213 z "},"Ð":{"ha":1002,"x_min":29,"x_max":939,"o":"m 29 451 q 33 494 32 473 q 127 492 95 492 l 138 806 q 140 926 140 856 l 290 925 l 475 926 q 685 905 606 926 q 826 822 764 885 q 913 678 887 758 q 939 505 939 597 q 900 291 939 394 q 782 119 860 189 q 607 24 705 49 q 393 0 509 0 l 249 1 l 101 0 q 126 453 118 246 q 29 451 97 453 m 178 492 l 257 492 q 455 494 349 492 q 452 451 452 473 q 241 454 355 454 l 176 454 l 159 43 q 353 41 296 41 q 492 47 420 41 q 619 72 563 54 q 730 137 675 90 q 819 241 785 184 q 871 369 854 298 q 888 511 888 439 q 872 644 888 580 q 837 730 860 690 q 775 807 810 775 q 703 854 741 838 q 607 877 665 870 q 487 884 556 884 l 326 884 l 195 884 l 178 492 z "},"ð":{"ha":781,"x_min":63,"x_max":718,"o":"m 275 950 q 313 984 292 963 q 392 891 345 944 q 477 962 435 926 q 502 931 488 946 q 416 864 446 888 q 522 749 449 827 q 627 629 594 671 q 680 547 660 587 q 709 460 700 507 q 718 365 718 414 q 693 207 718 282 q 622 80 667 131 q 514 7 576 28 q 382 -14 452 -14 q 290 -3 336 -14 q 202 33 243 7 q 129 99 161 58 q 80 199 97 140 q 63 319 63 258 q 103 522 63 429 q 226 657 143 614 q 404 699 309 699 q 466 695 433 699 q 522 679 498 690 l 380 836 q 296 764 352 812 q 271 795 286 780 q 356 862 301 818 l 275 950 m 398 661 q 248 622 317 661 q 146 502 179 583 q 114 325 114 421 q 133 197 114 257 q 193 97 151 138 q 282 40 234 56 q 382 24 330 24 q 496 43 443 24 q 589 109 549 63 q 648 222 629 155 q 667 365 667 290 q 649 496 667 435 q 591 594 630 557 q 501 646 551 631 q 398 661 451 661 z "},"Ý":{"ha":669,"x_min":12,"x_max":695,"o":"m 277 0 l 297 294 l 304 420 l 213 581 l 12 926 q 43 925 30 925 q 73 926 56 925 l 102 871 q 159 772 111 854 l 334 467 l 496 709 l 595 865 q 633 926 608 885 q 664 925 650 925 q 695 926 677 925 l 353 417 q 351 354 353 384 l 342 180 q 338 94 340 141 l 337 0 q 307 1 319 1 q 277 0 294 1 m 340 1013 q 361 1081 350 1046 q 400 1202 373 1116 q 439 1201 417 1201 q 479 1202 462 1201 q 424 1111 463 1176 q 368 1013 385 1045 q 353 1014 362 1014 q 340 1013 345 1014 z "},"ý":{"ha":618,"x_min":-58,"x_max":639,"o":"m -54 -315 q -58 -262 -54 -293 q -23 -276 -37 -272 q 10 -284 -9 -281 q 45 -287 29 -287 q 118 -267 84 -287 q 186 -187 152 -248 q 267 -21 221 -127 l 118 395 l 11 685 q 43 684 31 684 q 75 685 56 684 l 87 637 q 104 581 95 609 q 140 475 117 541 l 294 35 l 509 513 q 549 608 538 578 q 577 685 561 637 q 608 684 597 684 q 639 685 619 684 q 515 416 605 609 l 382 130 l 256 -149 q 204 -244 226 -214 q 168 -285 186 -268 q 136 -306 153 -297 q 90 -322 115 -317 q 36 -329 64 -329 q -54 -315 -7 -329 m 286 771 q 307 840 296 805 q 346 960 319 874 q 385 960 363 960 q 425 960 408 960 q 370 869 408 935 q 313 771 331 804 q 299 772 308 772 q 286 771 291 772 z "},"Þ":{"ha":697,"x_min":101,"x_max":669,"o":"m 101 0 l 115 219 l 130 576 l 136 836 l 136 926 q 165 925 154 925 q 194 926 177 925 q 188 796 192 895 q 323 795 264 795 l 438 796 q 532 787 492 796 q 603 749 572 778 q 652 679 635 720 q 669 592 669 638 q 626 444 669 509 q 510 347 583 379 q 345 315 437 315 q 229 328 292 315 q 216 369 224 347 q 336 357 277 357 q 447 370 394 357 q 537 415 500 384 q 596 492 575 446 q 617 590 617 538 q 607 650 617 621 q 583 697 597 678 q 548 728 568 715 q 505 745 527 740 q 440 752 482 750 q 362 753 421 753 l 186 753 l 168 184 l 165 0 q 133 1 147 1 q 101 0 118 1 z "},"þ":{"ha":785,"x_min":81,"x_max":722,"o":"m 81 -301 l 94 -54 l 119 652 l 120 797 q 121 926 121 903 q 149 925 139 925 q 177 926 159 925 l 172 835 q 170 777 170 805 l 165 654 q 213 672 193 665 q 263 685 232 678 q 331 695 294 691 q 405 699 368 699 q 536 680 476 699 q 637 616 596 660 q 701 507 679 572 q 722 366 722 441 q 680 164 722 256 q 565 30 637 73 q 404 -14 493 -14 q 326 -5 364 -14 q 255 22 287 4 q 200 66 222 40 q 147 148 177 92 l 136 -212 l 136 -235 q 137 -301 136 -258 q 109 -300 119 -300 q 81 -301 99 -300 m 166 613 q 162 559 163 575 l 155 367 q 154 310 154 326 q 166 200 154 250 q 215 108 178 149 q 301 45 252 66 q 405 24 351 24 q 543 65 482 24 q 637 187 604 107 q 671 363 671 267 q 640 522 671 453 q 549 626 608 591 q 409 661 490 661 q 346 658 379 661 q 279 647 313 654 q 223 633 245 640 q 166 613 201 626 z "},"−":{"ha":745,"x_min":81,"x_max":672,"o":"m 85 499 q 378 496 208 496 q 672 499 546 496 q 669 454 669 475 q 375 458 546 458 q 81 454 207 458 q 85 499 85 481 z "},"×":{"ha":745,"x_min":148,"x_max":607,"o":"m 177 253 q 148 286 162 271 q 351 477 204 337 l 160 669 q 194 700 181 686 q 378 503 242 646 l 481 604 q 578 701 519 641 q 607 668 592 682 q 404 477 543 610 l 514 364 q 595 284 552 326 q 561 254 572 267 q 376 450 491 330 l 177 253 z "},"¹":{"ha":479,"x_min":201,"x_max":298,"o":"m 229 370 l 236 492 l 250 875 q 201 844 248 874 q 204 891 204 872 q 263 926 233 907 q 278 926 271 926 q 298 926 287 926 q 281 570 290 793 q 278 433 278 484 q 279 370 278 408 l 254 371 l 229 370 z "},"²":{"ha":479,"x_min":68,"x_max":431,"o":"m 68 370 q 70 397 70 386 l 70 410 q 201 544 143 482 q 300 654 260 605 q 359 733 341 703 q 383 779 378 762 q 389 811 389 795 q 352 875 389 852 q 256 899 316 899 q 95 874 195 899 q 102 918 100 895 q 256 934 179 934 q 346 921 307 934 q 409 880 386 907 q 431 814 431 852 q 427 777 431 795 q 408 733 422 760 q 361 665 393 706 q 250 537 310 602 q 122 406 191 472 q 197 406 135 406 q 325 406 284 406 q 412 411 366 407 q 409 370 410 391 q 243 371 345 371 l 68 370 z "},"³":{"ha":479,"x_min":53,"x_max":422,"o":"m 58 384 q 53 432 58 406 q 140 405 104 412 q 208 398 176 398 q 332 436 284 398 q 379 530 379 473 q 363 586 379 560 q 314 626 347 611 q 218 640 281 640 q 159 637 195 640 q 161 666 161 656 l 161 678 q 203 674 184 674 q 287 688 248 674 q 348 732 326 701 q 369 798 369 762 q 353 851 369 827 q 307 887 338 876 q 231 899 276 899 q 98 878 170 899 q 104 921 102 901 q 229 934 180 934 q 329 919 286 934 q 392 872 372 904 q 413 800 413 840 q 401 741 413 771 q 369 692 389 711 q 311 661 349 673 q 392 619 362 654 q 422 530 422 583 q 396 443 422 483 q 318 382 370 403 q 201 362 267 362 q 139 367 172 362 q 58 384 106 371 z "},"½":{"ha":1084,"x_min":201,"x_max":1023,"o":"m 229 370 l 236 492 l 250 875 q 201 844 248 874 q 204 891 204 872 q 263 926 233 907 q 278 926 271 926 q 298 926 287 926 q 281 570 290 793 q 278 433 278 484 q 279 370 278 408 l 254 371 l 229 370 m 239 0 l 611 597 l 752 825 l 812 926 q 836 925 826 925 q 860 926 847 925 l 672 627 l 342 94 l 287 0 q 262 1 273 1 q 239 0 252 1 m 661 0 q 663 26 663 16 l 662 39 q 793 173 735 112 q 892 284 852 235 q 952 362 933 333 q 976 408 970 391 q 981 441 981 425 q 945 505 981 481 q 848 528 908 528 q 688 504 787 528 q 695 548 692 525 q 848 564 772 564 q 939 550 899 564 q 1001 510 979 537 q 1023 444 1023 482 q 1019 407 1023 425 q 1000 362 1015 389 q 953 294 986 336 q 843 166 903 231 q 714 35 783 102 q 789 35 728 35 q 918 36 877 35 q 1004 41 958 37 q 1001 0 1002 21 q 836 1 937 1 l 661 0 z "},"¼":{"ha":1084,"x_min":201,"x_max":1033,"o":"m 229 370 l 236 492 l 250 875 q 201 844 248 874 q 204 891 204 872 q 263 926 233 907 q 278 926 271 926 q 298 926 287 926 q 281 570 290 793 q 278 433 278 484 q 279 370 278 408 l 254 371 l 229 370 m 239 0 l 611 597 l 752 825 l 812 926 q 836 925 826 925 q 860 926 847 925 l 672 627 l 342 94 l 287 0 q 262 1 273 1 q 239 0 252 1 m 880 -1 q 888 129 886 59 l 891 208 l 775 208 l 652 206 q 654 239 654 228 l 654 247 q 756 378 684 284 l 848 499 q 890 555 869 526 q 918 555 907 555 q 950 556 932 555 q 936 243 944 456 q 1004 244 989 243 q 1033 247 1019 245 q 1031 218 1031 229 l 1031 206 q 934 208 968 208 q 931 128 933 196 q 930 42 930 60 q 931 -1 930 28 q 905 1 912 1 q 880 -1 899 1 m 892 243 l 900 454 q 901 490 901 483 l 901 507 l 700 243 l 892 243 z "},"¾":{"ha":1084,"x_min":53,"x_max":1032,"o":"m 58 384 q 53 432 58 406 q 140 405 104 412 q 208 398 176 398 q 332 436 284 398 q 379 530 379 473 q 363 586 379 560 q 314 626 347 611 q 218 640 281 640 q 159 637 195 640 q 161 666 161 656 l 161 678 q 203 674 184 674 q 287 688 248 674 q 348 732 326 701 q 369 798 369 762 q 353 851 369 827 q 307 887 338 876 q 231 899 276 899 q 98 878 170 899 q 104 921 102 901 q 229 934 180 934 q 329 919 286 934 q 392 872 372 904 q 413 800 413 840 q 401 741 413 771 q 369 692 389 711 q 311 661 349 673 q 392 619 362 654 q 422 530 422 583 q 396 443 422 483 q 318 382 370 403 q 201 362 267 362 q 139 367 172 362 q 58 384 106 371 m 238 0 l 610 597 l 751 825 l 812 926 q 836 925 825 925 q 860 926 846 925 l 671 627 l 342 94 l 287 0 q 262 1 273 1 q 238 0 252 1 m 880 -1 q 888 129 885 59 l 891 208 l 774 208 l 652 206 q 654 239 654 228 l 654 247 q 755 378 684 284 l 848 499 q 889 555 868 526 q 918 555 907 555 q 950 556 932 555 q 935 243 943 456 q 1003 244 988 243 q 1032 247 1018 245 q 1031 218 1031 229 l 1031 206 q 933 208 968 208 q 931 128 932 196 q 929 42 929 60 q 930 -1 929 28 q 905 1 911 1 q 880 -1 899 1 m 892 243 l 900 454 q 901 490 901 483 l 901 507 l 700 243 l 892 243 z "},"­":{"ha":335,"x_min":-2,"x_max":328,"o":"m -2 332 q 1 380 1 360 q 164 377 75 377 q 328 380 250 377 q 324 332 324 353 q 159 336 250 336 q -2 332 75 336 z "},"¯":{"ha":700,"x_min":3,"x_max":697,"o":"m 3 1061 l 697 1061 l 697 1015 l 3 1015 l 3 1061 z "},"·":{"ha":90,"x_min":7,"x_max":92,"o":"m 7 433 l 12 511 q 52 511 39 511 q 92 511 64 511 q 90 472 90 492 q 87 433 89 452 q 47 434 59 434 q 7 433 36 434 z "},"¤":{"ha":745,"x_min":39,"x_max":715,"o":"m 147 685 l 104 728 q 52 781 93 740 q 83 808 70 795 q 172 711 103 785 q 268 766 210 747 q 385 785 326 785 q 498 767 442 785 q 591 711 555 748 l 688 809 q 715 779 702 792 q 612 684 675 743 q 654 592 640 646 q 669 484 669 538 q 654 368 669 424 q 611 264 640 311 q 703 174 644 231 q 672 146 683 157 l 590 235 q 550 195 569 209 q 503 168 531 181 q 438 148 475 155 q 365 140 402 140 q 303 146 334 140 q 243 162 273 151 q 192 189 214 174 q 148 227 170 203 l 66 144 q 39 175 53 161 q 126 256 82 214 q 108 288 115 272 q 93 329 100 304 q 80 384 85 355 q 76 446 76 414 q 96 580 76 514 q 147 685 115 646 m 379 749 q 244 713 307 749 q 152 606 181 678 q 122 447 122 534 q 139 332 122 386 q 193 242 156 279 q 274 192 231 205 q 365 178 317 178 q 471 197 421 178 q 555 256 520 216 q 606 356 589 297 q 623 483 623 416 q 606 601 623 545 q 553 689 589 656 q 472 735 518 722 q 379 749 427 749 z "}}}
